<?xml version="1.0" encoding="UTF-8"?>
<svg version="1.1" xmlns="http://www.w3.org/2000/svg" width="733" height="300">
<path d="M0 0 C18.50014893 15.9187328 28.87709438 35.50780951 31.3125 59.75 C31.76588236 67.91392255 31.71285753 76.09330312 31.69262505 84.2671833 C31.68341479 88.33290694 31.69335606 92.3981721 31.70924377 96.46385193 C31.74510089 106.54585216 31.75166351 116.62784148 31.74914551 126.7098999 C31.74743069 134.58289919 31.75460897 142.45566676 31.78912407 150.3286013 C31.80310178 153.7056854 31.80909873 157.08237811 31.79607964 160.45947456 C31.78429313 164.21617468 31.79668833 167.9720984 31.81420898 171.72875977 C31.80446548 172.83278137 31.79472198 173.93680298 31.78468323 175.07427979 C31.85276189 182.39431053 32.79185436 188.1997691 38.171875 193.625 C42.92986561 196.45620102 46.77765295 197.90845636 52.3125 196.75 C57.49811769 194.97099247 61.56052545 192.61887805 64.3125 187.75 C67.27778268 178.57112867 66.6131798 168.62330865 66.61547852 159.09741211 C66.62314924 157.21580647 66.63169741 155.33420423 66.64105225 153.4526062 C66.65925644 149.41868153 66.67134202 145.38480253 66.67859077 141.35084343 C66.69011171 134.97738018 66.71557911 128.60401836 66.74290466 122.23060608 C66.78446367 112.15984589 66.81692694 102.0890808 66.84537882 92.0182758 C66.89648808 73.95303897 66.95839708 55.88784384 67.03071922 37.82267958 C67.05568525 31.48054227 67.07509556 25.13841865 67.09010136 18.79625022 C67.10026892 14.86510406 67.11441321 10.93397933 67.12957764 7.00284958 C67.13575806 5.1730137 67.14020332 3.34317107 67.14283562 1.51332664 C67.14661864 -0.97313507 67.1564065 -3.45950111 67.16773987 -5.94593811 C67.16735374 -6.6793752 67.1669676 -7.41281228 67.16656977 -8.16847473 C67.19843416 -13.13593416 67.19843416 -13.13593416 68.3125 -14.25 C70.55179886 -14.34436529 72.7941175 -14.36742327 75.03540039 -14.36352539 C75.7378035 -14.36367142 76.4402066 -14.36381744 77.16389465 -14.3639679 C79.49601278 -14.36326872 81.828052 -14.35547617 84.16015625 -14.34765625 C85.77298438 -14.34579208 87.38581307 -14.34436818 88.99864197 -14.34336853 C93.25165357 -14.33954323 97.50463124 -14.32971285 101.75762939 -14.31866455 C106.0942743 -14.30845069 110.43092467 -14.30387096 114.76757812 -14.29882812 C123.28256769 -14.28809059 131.79752963 -14.27101403 140.3125 -14.25 C141.67489076 -11.52521848 141.43219958 -9.38159145 141.42602539 -6.33154297 C141.42594986 -5.09040741 141.42587433 -3.84927185 141.42579651 -2.57052612 C141.4206895 -1.21107951 141.4154735 0.14836669 141.41015625 1.5078125 C141.40829142 2.89500884 141.40686782 4.28220584 141.40586853 5.66940308 C141.40204848 9.32234512 141.39222255 12.97524748 141.38116455 16.62817383 C141.37093944 20.35497501 141.36636855 24.08178259 141.36132812 27.80859375 C141.35059983 35.12241394 141.33352954 42.43620141 141.3125 49.75 C137.42147697 51.42796818 133.54167389 53.04554334 129.5625 54.5 C117.22473421 59.48760745 108.67181462 67.0271975 102.3125 78.75 C97.32516414 92.04416473 96.82789337 105.42712681 101.89453125 118.87109375 C108.89006765 133.07415251 119.95423774 141.50377511 134.66015625 146.55664062 C136.87482894 147.29659778 139.09187831 148.02811473 141.3125 148.75 C141.38784442 153.86878403 141.44165241 158.9872306 141.47729492 164.10644531 C141.4921861 165.84022661 141.51250587 167.57397161 141.53881836 169.30761719 C141.92365341 195.35566784 135.99918845 216.88648836 118.3125 236.75 C105.97630687 249.08619313 89.16543456 257.63952816 72.3125 261.75 C70.97638672 262.08644531 70.97638672 262.08644531 69.61328125 262.4296875 C43.89132658 267.78689917 16.97583667 262.34149097 -5.36328125 249.01953125 C-11.07418004 245.27514482 -15.90751507 240.59428966 -20.6875 235.75 C-21.35394531 235.08226562 -22.02039063 234.41453125 -22.70703125 233.7265625 C-37.83195031 217.54324053 -43.02164226 197.46109515 -42.94287109 175.87231445 C-42.94649155 174.64631531 -42.950112 173.42031616 -42.95384216 172.15716553 C-42.96069287 169.51683361 -42.96414301 166.87675842 -42.96189499 164.23644447 C-42.95903197 160.05332814 -42.9735217 155.87037657 -42.99087524 151.68730164 C-43.03762714 139.80156873 -43.06184783 127.91585029 -43.06835938 116.0300293 C-43.07211873 109.44524163 -43.09020805 102.86064396 -43.12345374 96.27593774 C-43.14356131 92.1252675 -43.14609232 87.97509065 -43.13517356 83.82439196 C-43.13193697 80.62935317 -43.15469177 77.43447649 -43.17333984 74.23950195 C-43.16516739 73.10316818 -43.15699493 71.96683441 -43.14857483 70.79606628 C-43.22635123 63.29094533 -44.15498606 56.31776857 -49.64453125 50.7734375 C-55.07478361 48.05311987 -60.62444005 47.07341286 -66.5 48.8125 C-71.21905591 50.7051249 -74.4400017 53.32722324 -76.79942226 57.90947342 C-77.94321436 61.56790525 -77.97245743 65.02992681 -77.95924377 68.82342529 C-77.96687403 70.03546485 -77.96687403 70.03546485 -77.97465843 71.27199006 C-77.98930944 73.97662263 -77.98985254 76.68107274 -77.99047852 79.38574219 C-77.99814022 81.3257228 -78.00668668 83.26570009 -78.01605225 85.20567322 C-78.03432557 89.38101313 -78.04636741 93.5563083 -78.05359077 97.73168182 C-78.06506864 104.32737609 -78.09051941 110.92297105 -78.11790466 117.51861572 C-78.15954882 127.94370252 -78.1919694 138.36879405 -78.22037882 148.79392457 C-78.27138419 167.48257721 -78.33337382 186.17118892 -78.40571922 204.85977101 C-78.43070085 211.4235221 -78.45010508 217.9872599 -78.46510136 224.55104113 C-78.47527005 228.6231312 -78.48941518 232.69520061 -78.50457764 236.76727486 C-78.51075836 238.66322152 -78.51520345 240.55917471 -78.51783562 242.45512962 C-78.52161859 245.03162824 -78.53140664 247.60803452 -78.54273987 250.18450928 C-78.54235374 250.94470265 -78.5419676 251.70489603 -78.54156977 252.48812556 C-78.5734351 257.6359351 -78.5734351 257.6359351 -79.6875 258.75 C-81.92137206 258.8496392 -84.15843859 258.87799795 -86.39453125 258.87939453 C-87.09532806 258.88114685 -87.79612488 258.88289917 -88.51815796 258.88470459 C-90.84546349 258.88912266 -93.17269364 258.88618529 -95.5 258.8828125 C-97.11043309 258.88348555 -98.72086609 258.88445559 -100.33129883 258.88571167 C-103.71078455 258.88718858 -107.0902439 258.88503431 -110.46972656 258.88037109 C-114.81126505 258.8746738 -119.15274173 258.87795285 -123.49427795 258.88394356 C-126.82100901 258.88754936 -130.1477253 258.8864105 -133.47445679 258.88381577 C-135.07571418 258.88314655 -136.6769729 258.88397474 -138.27822876 258.88629532 C-140.51234511 258.88882216 -142.74636 258.88498085 -144.98046875 258.87939453 C-146.89122192 258.87820114 -146.89122192 258.87820114 -148.84057617 258.87698364 C-151.6875 258.75 -151.6875 258.75 -152.6875 257.75 C-152.79192743 255.19354121 -152.83082604 252.66386215 -152.82794189 250.10667419 C-152.83091302 249.2963148 -152.83388414 248.4859554 -152.8369453 247.65103966 C-152.84567206 244.91375254 -152.84714396 242.17650895 -152.84863281 239.43920898 C-152.85325864 237.48475042 -152.85828297 235.53029277 -152.86367798 233.57583618 C-152.87683749 228.246479 -152.88325527 222.91713445 -152.88768864 217.58776355 C-152.89061715 214.25502588 -152.89472181 210.92229167 -152.89919281 207.58955574 C-152.91288477 197.15428159 -152.92253983 186.71901534 -152.9263947 176.28373283 C-152.93086243 164.25551539 -152.94834319 152.22741234 -152.9773953 140.19922966 C-152.99908009 130.89627396 -153.0091028 121.59335025 -153.01043582 112.29036957 C-153.01148014 106.73870043 -153.01730658 101.18713856 -153.03525543 95.63549614 C-153.05185097 90.39964751 -153.05383639 85.16398537 -153.04511642 79.92811966 C-153.04435182 78.01750371 -153.04861157 76.10687728 -153.05857468 74.19628716 C-153.18390863 48.63824913 -147.68264705 26.27663344 -129.3671875 7.43359375 C-128.04074219 6.10521484 -128.04074219 6.10521484 -126.6875 4.75 C-126.03007813 4.08097656 -125.37265625 3.41195313 -124.6953125 2.72265625 C-92.26310026 -27.96963044 -34.00768393 -26.78523629 0 0 Z " fill="#6D4C42" transform="translate(190.6875,23.25)"/>
<path d="M0 0 C1.31238144 0.00222061 2.62476288 0.00444122 3.97691345 0.00672913 C4.6988237 0.0065831 5.42073395 0.00643707 6.16452026 0.00628662 C8.56156879 0.00698583 10.95854054 0.01477857 13.35557556 0.02259827 C15.0132442 0.02446242 16.67091338 0.02588633 18.32858276 0.02688599 C22.69996145 0.03071139 27.07130712 0.04054186 31.44267273 0.05158997 C35.89996392 0.0618036 40.35726043 0.0663835 44.81455994 0.07142639 C53.56652824 0.08216412 62.31846968 0.0992408 71.07041931 0.12025452 C71.1982345 8.07601613 71.32057703 16.03185563 71.43998718 23.98774719 C71.48515 26.99585696 71.53116528 30.00395197 71.57780457 33.01203918 C71.89300855 53.45363597 72.11100795 73.89413563 72.23204994 94.33784103 C72.25398175 97.94323161 72.27786913 101.5486035 72.30252075 105.15397644 C72.31065324 106.34445524 72.31878572 107.53493404 72.32716465 108.76148796 C72.34365768 111.16545612 72.36024074 113.56942366 72.37691402 115.97339058 C72.42528822 123.12493823 72.46042252 130.27640912 72.48666859 137.42807007 C72.50632964 141.95369401 72.53813702 146.47917732 72.5729847 151.00470734 C72.58671236 153.12061106 72.59535476 155.23655496 72.59847832 157.35250092 C72.62806157 174.86063831 73.77306807 189.50532993 86.07041931 203.12025452 C86.73041931 203.45025452 87.39041931 203.78025452 88.07041931 204.12025452 C88.07041931 204.78025452 88.07041931 205.44025452 88.07041931 206.12025452 C89.02948181 206.49150452 89.02948181 206.49150452 90.00791931 206.87025452 C93.31768352 208.22117868 96.54999352 209.70667558 99.78916931 211.21791077 C108.96942423 214.84914174 122.10029831 214.60872677 131.32041931 211.37025452 C135.20918507 209.68155501 138.68923807 207.69639261 142.07041931 205.12025452 C142.89541931 204.58400452 143.72041931 204.04775452 144.57041931 203.49525452 C153.81012009 194.71753878 157.62557238 181.76637491 158.26313972 169.3745079 C158.37272803 164.94946572 158.37220608 160.52442611 158.37339783 156.09828186 C158.38107245 154.40371806 158.38962134 152.70915804 158.39897156 151.01460266 C158.41714609 147.38776113 158.42925031 143.76097008 158.43651009 140.13409042 C158.4480499 134.40323612 158.47352439 128.67249397 158.50082397 122.94169617 C158.54234644 113.88740933 158.57482785 104.83311704 158.60329813 95.77878058 C158.65445148 79.53269074 158.71632977 63.28664697 158.78863853 47.04063761 C158.81359639 41.33826138 158.83300998 35.63590035 158.84802067 29.93348956 C158.85818857 26.40004011 158.87233251 22.86661448 158.88749695 19.33318329 C158.89367665 17.68879123 158.89812232 16.04439165 158.90075493 14.39999008 C158.90453867 12.16537337 158.91432711 9.93086302 158.92565918 7.6962738 C158.92951409 6.44309546 158.93336901 5.18991711 158.93734074 3.89876366 C159.07041931 1.12025452 159.07041931 1.12025452 160.07041931 0.12025452 C162.37095766 0.02582116 164.67444104 0.00283323 166.97691345 0.00672913 C167.6988237 0.0065831 168.42073395 0.00643707 169.16452026 0.00628662 C171.56156879 0.00698583 173.95854054 0.01477857 176.35557556 0.02259827 C178.0132442 0.02446242 179.67091338 0.02588633 181.32858276 0.02688599 C185.69996145 0.03071139 190.07130712 0.04054186 194.44267273 0.05158997 C198.89996392 0.0618036 203.35726043 0.0663835 207.81455994 0.07142639 C216.56652824 0.08216412 225.31846968 0.0992408 234.07041931 0.12025452 C234.90577674 20.04256911 235.2227296 39.93148872 235.20474482 59.86970973 C235.20214802 63.67202104 235.20457778 67.4743304 235.20613098 71.27664185 C235.20792862 77.6355687 235.20560722 83.99448377 235.20079041 90.35340881 C235.19531703 97.6626799 235.19714232 104.97192322 235.20261681 112.28119367 C235.20717528 118.62674537 235.20778622 124.97228878 235.20517814 131.31784159 C235.20363485 135.0782314 235.20336795 138.83860819 235.20671463 142.59899712 C235.20963483 146.12302883 235.20754274 149.647025 235.20182037 153.17105293 C235.19990238 155.05267922 235.2028084 156.93430858 235.20594788 158.81593323 C235.17728247 170.56050767 234.75069547 182.13013484 231.88291931 193.55775452 C231.66152283 194.45244446 231.44012634 195.3471344 231.21202087 196.26893616 C224.03812858 224.20159139 206.42988448 247.35657843 181.56260681 262.20228577 C148.51041338 280.35511236 107.96575543 282.49106032 72.07041931 272.12025452 C53.6287556 266.39997855 38.54349176 256.87261153 25.07041931 243.12025452 C24.29955994 242.33650452 23.52870056 241.55275452 22.73448181 240.74525452 C3.60161387 220.21957243 -4.28293667 192.82895303 -4.09754944 165.28041077 C-3.92958069 163.12025452 -3.92958069 163.12025452 -2.92958069 162.12025452 C-0.86898005 161.75519935 1.19401563 161.40364736 3.25791931 161.05775452 C15.67208036 158.46091471 26.69756851 151.95988587 33.93370056 141.40150452 C41.51850685 129.21556314 44.17153987 116.85140135 41.37901306 102.58900452 C39.41200165 95.54397619 36.58060441 89.85354066 32.07041931 84.12025452 C31.568974 83.4331842 31.06752869 82.74611389 30.55088806 82.03822327 C22.76029411 72.12464508 12.13369488 68.39299274 0.24620056 65.84681702 C-2.92958069 65.12025452 -2.92958069 65.12025452 -3.92958069 64.12025452 C-4.02883842 62.16200754 -4.05757483 60.20015555 -4.05897522 58.23939514 C-4.06212738 56.98139099 -4.06527954 55.72338684 -4.06852722 54.42726135 C-4.06673744 53.04367539 -4.06468649 51.66008974 -4.06239319 50.27650452 C-4.06306628 48.86785363 -4.06403634 47.45920286 -4.06529236 46.05055237 C-4.06676911 43.09477129 -4.06461552 40.13902038 -4.05995178 37.1832428 C-4.05425449 33.38650868 -4.05753362 29.58984523 -4.06352425 25.79311371 C-4.06713048 22.88329024 -4.06599099 19.97348364 -4.06339645 17.06365967 C-4.06272736 15.66336051 -4.06355501 14.26305984 -4.06587601 12.86276245 C-4.06840351 10.90887988 -4.06387102 8.95499197 -4.05897522 7.00111389 C-4.05817963 5.88716248 -4.05738403 4.77321106 -4.05656433 3.62550354 C-3.87308494 0.00565487 -3.67017139 0.15065456 0 0 Z " fill="#6D4C42" transform="translate(342.92958068847656,8.879745483398438)"/>
<path d="M0 0 C5.77591141 -0.10056499 11.55128869 -0.17224902 17.32788086 -0.21972656 C19.28370056 -0.23956473 21.23946327 -0.26664404 23.19506836 -0.30175781 C52.51531423 -0.81416509 78.77159947 6.14019952 101 26 C101.62132812 26.52722656 102.24265625 27.05445312 102.8828125 27.59765625 C118.75014409 42.02585776 126.56743564 63.9399416 127.8125 84.8125 C128.92365663 109.8488364 121.39719308 132.6238113 104.7265625 151.5859375 C85.20716654 172.11604652 57.94405163 181.9073151 30.0625 183.1796875 C27.36574502 183.18604777 24.69220663 183.14774305 22 183 C20.24757964 179.96310737 19.74801393 177.77215337 19.74121094 174.27905273 C19.73490662 173.34806259 19.72860229 172.41707245 19.72210693 171.45787048 C19.7261554 170.45985916 19.73020386 169.46184784 19.734375 168.43359375 C19.73246155 167.40315445 19.7305481 166.37271515 19.72857666 165.31105042 C19.72721675 163.13485469 19.73089964 160.9586508 19.73925781 158.7824707 C19.7499708 155.44659273 19.73935017 152.11125197 19.7265625 148.77539062 C19.72788391 146.66145714 19.73044593 144.54752399 19.734375 142.43359375 C19.73032654 141.4335582 19.72627808 140.43352264 19.72210693 139.40318298 C19.72841125 138.475345 19.73471558 137.54750702 19.74121094 136.59155273 C19.74280212 135.77532944 19.74439331 134.95910614 19.74603271 134.1181488 C20 132 20 132 22 129 C24.90625 128.4453125 24.90625 128.4453125 28.5 128.125 C38.1060996 126.92546658 46.45686782 123.32964679 53 116 C59.66482436 106.88353726 61.83390752 96.19989063 60.5625 85.1015625 C58.90870346 75.98271212 55.02037784 69.11413285 48 63 C36.46911155 55.38701407 24.0677405 55.66316064 10.68945312 55.52148438 C8.86510742 55.4818457 8.86510742 55.4818457 7.00390625 55.44140625 C5.89861572 55.42795166 4.7933252 55.41449707 3.65454102 55.40063477 C2.77854248 55.26842529 1.90254395 55.13621582 1 55 C-1.13471795 51.79792307 -1.24919889 50.99140157 -1.24291992 47.31665039 C-1.24599655 46.36879166 -1.24907318 45.42093292 -1.25224304 44.4443512 C-1.24505753 43.42244186 -1.23787201 42.40053253 -1.23046875 41.34765625 C-1.23001053 40.29597763 -1.22955231 39.24429901 -1.2290802 38.16075134 C-1.22605801 35.935688 -1.21817272 33.71062676 -1.20581055 31.4855957 C-1.18759101 28.07951355 -1.18530064 24.67370385 -1.18554688 21.26757812 C-1.18063014 19.10676848 -1.17480115 16.94596068 -1.16796875 14.78515625 C-1.16685593 13.76527115 -1.1657431 12.74538605 -1.16459656 11.69459534 C-1.15821671 10.74358444 -1.15183685 9.79257355 -1.14526367 8.81274414 C-1.14145187 7.97796036 -1.13764008 7.14317657 -1.13371277 6.28309631 C-1.00378842 4.06468579 -0.61541612 2.13011293 0 0 Z " fill="#6D4C42" transform="translate(588,9)"/>
<path d="M0 0 C8.64205249 7.06270409 15.02539707 15.10552745 16.8125 26.3125 C17.72799621 39.74564637 15.04185356 49.58142296 6.8125 60.3125 C-0.32330164 68.01916577 -9.24670242 72.66085307 -19.765625 73.6484375 C-32.49421079 73.78384799 -41.86841231 71.22640996 -51.1875 62.3125 C-59.46603803 53.4929882 -63.57826306 43.2092777 -63.3984375 31.125 C-62.70799709 21.91912786 -60.01085676 14.46060143 -54.1875 7.3125 C-53.68476562 6.68601563 -53.18203125 6.05953125 -52.6640625 5.4140625 C-39.40861269 -9.39324485 -15.97408472 -11.09225612 0 0 Z " fill="#6C4C42" transform="translate(646.1875,213.6875)"/>
<path d="M0 0 C3.27832602 3.18190467 3.8414943 6.58456384 4.125 11.0625 C3.476704 18.36575291 -0.32314299 24.35183344 -5.875 29.0625 C-9.2738238 30.7619119 -10.97864066 31.0625 -14.875 31.0625 C-14.76800781 31.78695312 -14.66101563 32.51140625 -14.55078125 33.2578125 C-13.29727478 43.36673565 -13.29727478 43.36673565 -16.875 48.0625 C-19.65907233 51.03166302 -22.15595214 52.8749166 -26.2734375 53.32421875 C-33.97314431 52.90961915 -38.9910614 49.61871831 -44.625 44.625 C-51.38379188 36.92748703 -53.34906613 30.24565338 -53.19921875 20.13671875 C-52.75249382 15.90090522 -51.77735645 14.13070539 -48.875 11.0625 C-45.26368543 8.65495695 -42.14611637 8.0013749 -37.875 8.0625 C-32.55673271 9.25538238 -28.24253717 11.89603555 -23.875 15.0625 C-23.606875 14.41023438 -23.33875 13.75796875 -23.0625 13.0859375 C-18.38509928 2.65410301 -11.86170742 -3.86794807 0 0 Z " fill="#6B4D46" transform="translate(361.875,96.9375)"/>
<path d="M0 0 C0.33 0 0.66 0 1 0 C0.67 68.31 0.34 136.62 0 207 C23.43 207 46.86 207 71 207 C71 141.99 71 76.98 71 10 C71.66 10 72.32 10 73 10 C73.02332583 35.79872126 73.04097762 61.59744095 73.05181217 87.39617062 C73.0569758 99.37406198 73.06401977 111.35194681 73.07543945 123.32983398 C73.08538424 133.76568483 73.09185294 144.20153093 73.09408849 154.63738638 C73.09539595 160.16675595 73.098484 165.69611198 73.10573006 171.22547722 C73.11248705 176.42345873 73.11461762 181.62142103 73.11310768 186.81940651 C73.11338415 188.73309305 73.11539117 190.64678019 73.11920547 192.56046295 C73.12413771 195.16129931 73.12300004 197.76206193 73.12025452 200.36289978 C73.12316736 201.1303947 73.1260802 201.89788962 73.12908131 202.68864197 C73.11412121 207.88587879 73.11412121 207.88587879 72 209 C69.76612794 209.0996392 67.52906141 209.12799795 65.29296875 209.12939453 C64.59217194 209.13114685 63.89137512 209.13289917 63.16934204 209.13470459 C60.84203651 209.13912266 58.51480636 209.13618529 56.1875 209.1328125 C54.57706691 209.13348555 52.96663391 209.13445559 51.35620117 209.13571167 C47.97671545 209.13718858 44.5972561 209.13503431 41.21777344 209.13037109 C36.87623495 209.1246738 32.53475827 209.12795285 28.19322205 209.13394356 C24.86649099 209.13754936 21.5397747 209.1364105 18.21304321 209.13381577 C16.61178582 209.13314655 15.0105271 209.13397474 13.40927124 209.13629532 C11.17515489 209.13882216 8.94114 209.13498085 6.70703125 209.12939453 C4.79627808 209.12820114 4.79627808 209.12820114 2.84692383 209.12698364 C-0 209 -0 209 -1 208 C-1.09999872 205.42330324 -1.13440764 202.87334569 -1.12698364 200.29611206 C-1.12854363 199.47940257 -1.13010362 198.66269308 -1.13171089 197.82123482 C-1.13572454 195.06293419 -1.13252976 192.30468784 -1.12939453 189.54638672 C-1.13074847 187.57732613 -1.13252837 185.60826579 -1.13470459 183.63920593 C-1.13928155 178.27325751 -1.13748782 172.90732822 -1.1343255 167.54137945 C-1.13180112 161.93254385 -1.13413986 156.32370993 -1.13571167 150.71487427 C-1.13753404 141.28745224 -1.13512624 131.86003803 -1.13037109 122.43261719 C-1.1249378 111.53493492 -1.12668407 100.63727138 -1.1321975 89.73958957 C-1.13673801 80.39091579 -1.13737429 71.04224765 -1.13475883 61.69357312 C-1.13320001 56.10702083 -1.13299132 50.52047735 -1.13629532 44.93392563 C-1.13918729 39.6759917 -1.1371739 34.41808186 -1.13140106 29.16015053 C-1.13008018 27.23124672 -1.13045618 25.30234088 -1.13266373 23.37343788 C-1.13540186 20.73752795 -1.13196142 18.10169485 -1.12698364 15.46578979 C-1.12921436 14.7047812 -1.13144509 13.9437726 -1.13374341 13.15970314 C-1.11730148 8.66116982 -0.73274873 4.4240518 0 0 Z " fill="#6B5555" transform="translate(39,73)"/>
<path d="M0 0 C0.01030746 0.64320694 0.02061493 1.28641388 0.03123474 1.94911194 C0.14040885 8.71526015 0.25489901 15.48130435 0.37231445 22.24731445 C0.41531225 24.76389362 0.45700767 27.28049543 0.49731445 29.79711914 C0.55588009 33.43903392 0.61931364 37.08083836 0.68359375 40.72265625 C0.70030624 41.82642105 0.71701874 42.93018585 0.73423767 44.06739807 C0.83765535 49.66722666 1.07557607 55.21882168 1.51367188 60.80273438 C2.27747999 71.66845343 2.12349325 82.54662167 2.09765625 93.43359375 C2.09578737 95.76628082 2.09436569 98.09896828 2.09336853 100.43165588 C2.08958037 106.52244176 2.0797824 112.61320317 2.06866455 118.70397949 C2.05837015 124.93871734 2.05385383 131.1734592 2.04882812 137.40820312 C2.03815622 149.6054794 2.02112516 161.80273765 2 174 C-0.18994248 170.71508627 -0.35277339 169.16904361 -0.625 165.3125 C-0.69976562 164.31863281 -0.77453125 163.32476562 -0.8515625 162.30078125 C-0.90054687 161.54152344 -0.94953125 160.78226563 -1 160 C-1.66 160 -2.32 160 -3 160 C-3.15379549 139.69470925 -3.30183162 119.38938436 -3.4429636 99.08400154 C-3.50862495 89.65640192 -3.576189 80.22882302 -3.64819336 70.80126953 C-3.71092902 62.5866432 -3.77013442 54.37200043 -3.82505554 46.157318 C-3.8542749 41.80552887 -3.88529253 37.45376895 -3.92053413 33.10202408 C-3.95361959 29.00965091 -3.98200021 24.91727262 -4.00670624 20.82484055 C-4.01663523 19.31953932 -4.02831216 17.8142485 -4.04183006 16.30897522 C-4.05997145 14.26031018 -4.07132639 12.21158834 -4.08229065 10.16287231 C-4.09058679 9.01431826 -4.09888292 7.8657642 -4.10743046 6.68240547 C-4 4 -4 4 -3 2 C-3.99 1.67 -4.98 1.34 -6 1 C-1.125 0 -1.125 0 0 0 Z " fill="#6B4E49" transform="translate(413,10)"/>
<path d="M0 0 C0.33 0 0.66 0 1 0 C2.54588331 8.64405963 3.28826131 16.95735062 3.25537109 25.73168945 C3.25899155 26.93018021 3.262612 28.12867096 3.26634216 29.36347961 C3.27495468 32.60698245 3.27526855 35.8503674 3.2729907 39.09387612 C3.2737464 42.50941207 3.28886593 45.92487717 3.30337524 49.34037781 C3.35009536 60.93758701 3.37435403 72.53478069 3.38085938 84.13208008 C3.38461691 90.56011947 3.40268901 96.98796408 3.43595374 103.41591996 C3.45278937 106.80645663 3.46203118 110.19663913 3.45301437 113.58721352 C3.44594362 117.36353624 3.46322453 121.13903807 3.48583984 124.9152832 C3.47766739 126.02558899 3.46949493 127.13589478 3.46107483 128.27984619 C3.53872906 135.5754773 4.43291237 141.47038177 9.859375 146.83984375 C14.6561131 149.62472682 18.44581354 150.7024543 24 151 C22 153 22 153 20.01171875 153.08203125 C15.38145189 152.54507593 11.74712789 152.02187733 8 149 C8 148.34 8 147.68 8 147 C7.01 146.67 6.02 146.34 5 146 C5 145.01 5 144.02 5 143 C4.34 143 3.68 143 3 143 C0.79600832 138.44508386 0.41153737 133.97093824 0 129 C-1.485 129.99 -1.485 129.99 -3 131 C-3 90.74 -3 50.48 -3 9 C-2.34 9 -1.68 9 -1 9 C-0.67 6.03 -0.34 3.06 0 0 Z " fill="#6D4C46" transform="translate(219,70)"/>
<path d="M0 0 C1.31238144 0.00222061 2.62476288 0.00444122 3.97691345 0.00672913 C4.6988237 0.0065831 5.42073395 0.00643707 6.16452026 0.00628662 C8.56156879 0.00698583 10.95854054 0.01477857 13.35557556 0.02259827 C15.0132442 0.02446242 16.67091338 0.02588633 18.32858276 0.02688599 C22.69996145 0.03071139 27.07130712 0.04054186 31.44267273 0.05158997 C35.89996392 0.0618036 40.35726043 0.0663835 44.81455994 0.07142639 C53.56652993 0.08216412 62.31846672 0.09976109 71.07041931 0.12025452 C71.07041931 7.38025452 71.07041931 14.64025452 71.07041931 22.12025452 C70.74041931 22.12025452 70.41041931 22.12025452 70.07041931 22.12025452 C70.07041931 15.19025452 70.07041931 8.26025452 70.07041931 1.12025452 C69.41041931 1.45025452 68.75041931 1.78025452 68.07041931 2.12025452 C65.85439287 2.21221071 63.63551724 2.23775469 61.41758728 2.23377991 C60.39302429 2.23399895 60.39302429 2.23399895 59.34776306 2.23422241 C57.08601221 2.23352474 54.82434331 2.22573917 52.56260681 2.21791077 C50.99604843 2.21604607 49.42948947 2.21462241 47.8629303 2.21362305 C43.73652033 2.20980194 39.61014547 2.19997512 35.48374939 2.18891907 C31.27436295 2.17869621 27.06497084 2.17412355 22.85557556 2.16908264 C14.59384069 2.1583525 6.33213436 2.14128094 -1.92958069 2.12025452 C-1.9277371 2.99747854 -1.92589352 3.87470257 -1.92399406 4.77850914 C-1.87978161 26.14572283 -1.84670785 47.51292861 -1.82595634 68.88017845 C-1.81565376 79.21331299 -1.80161288 89.54641695 -1.77870178 99.87953186 C-1.75873675 108.88825521 -1.74585685 117.89695642 -1.7414037 126.90570128 C-1.7388016 131.6735805 -1.73270673 136.44139635 -1.71812057 141.20925522 C-1.70448746 145.70223675 -1.70036959 150.19512917 -1.70336533 154.68812943 C-1.70281772 156.33196752 -1.69887455 157.97580878 -1.69116974 159.61962891 C-1.64028577 171.04153422 -1.96464373 181.40455717 -7.42958069 191.68275452 C-7.73766663 192.2969928 -8.04575256 192.91123108 -8.36317444 193.54408264 C-10.64669146 197.9788099 -10.64669146 197.9788099 -12.92958069 199.12025452 C-11.8373612 195.57054118 -10.53827916 192.27020358 -8.92958069 188.93275452 C-4.29105393 178.47624106 -4.62962218 167.31456657 -4.62660217 156.09828186 C-4.61892755 154.40371806 -4.61037866 152.70915804 -4.60102844 151.01460266 C-4.58285391 147.38776113 -4.57074969 143.76097008 -4.56348991 140.13409042 C-4.5519501 134.40323612 -4.52647561 128.67249397 -4.49917603 122.94169617 C-4.45765356 113.88740933 -4.42517215 104.83311704 -4.39670187 95.77878058 C-4.34554852 79.53269074 -4.28367023 63.28664697 -4.21136147 47.04063761 C-4.18640361 41.33826138 -4.16699002 35.63590035 -4.15197933 29.93348956 C-4.14181143 26.40004011 -4.12766749 22.86661448 -4.11250305 19.33318329 C-4.10632335 17.68879123 -4.10187768 16.04439165 -4.09924507 14.39999008 C-4.09546133 12.16537337 -4.08567289 9.93086302 -4.07434082 7.6962738 C-4.07048591 6.44309546 -4.06663099 5.18991711 -4.06265926 3.89876366 C-3.87960163 0.07675617 -3.84459191 0.15781424 0 0 Z " fill="#715656" transform="translate(505.92958068847656,8.879745483398438)"/>
<path d="M0 0 C1.31238144 0.00222061 2.62476288 0.00444122 3.97691345 0.00672913 C4.6988237 0.0065831 5.42073395 0.00643707 6.16452026 0.00628662 C8.56156879 0.00698583 10.95854054 0.01477857 13.35557556 0.02259827 C15.0132442 0.02446242 16.67091338 0.02588633 18.32858276 0.02688599 C22.69996145 0.03071139 27.07130712 0.04054186 31.44267273 0.05158997 C36.68309598 0.0635981 41.92353025 0.06820622 47.16396332 0.07404327 C55.13280497 0.08375362 63.10157413 0.10290999 71.07041931 0.12025452 C71.07041931 18.27025452 71.07041931 36.42025452 71.07041931 55.12025452 C70.74041931 55.12025452 70.41041931 55.12025452 70.07041931 55.12025452 C69.74041931 37.63025452 69.41041931 20.14025452 69.07041931 2.12025452 C65.44041931 2.45025452 61.81041931 2.78025452 58.07041931 3.12025452 C55.92689202 3.19877428 53.7817898 3.24790614 51.63682556 3.24964905 C50.50615662 3.25280121 49.37548767 3.25595337 48.21055603 3.25920105 C47.02993591 3.25717682 45.8493158 3.25515259 44.63291931 3.25306702 C43.39042419 3.25402374 42.14792908 3.25498047 40.86778259 3.25596619 C38.26263884 3.25664247 35.65749335 3.25482693 33.05235291 3.25062561 C30.38333365 3.24702546 27.71451436 3.24609324 25.04551697 3.25062561 C21.17879707 3.25678205 17.31214184 3.25606286 13.44541931 3.25306702 C11.65019836 3.25610336 11.65019836 3.25610336 9.81871033 3.25920105 C8.16053284 3.25447281 8.16053284 3.25447281 6.46885681 3.24964905 C5.49609802 3.24885345 4.52333923 3.24805786 3.52110291 3.24723816 C1.07041931 3.12025452 1.07041931 3.12025452 -1.92958069 2.12025452 C-1.914832 2.79375443 -1.90008331 3.46725433 -1.8848877 4.16116333 C-1.73219092 11.18539987 -1.58749768 18.20976925 -1.44740295 25.23426819 C-1.39410886 27.85410224 -1.33878987 30.47389593 -1.28138733 33.09364319 C-1.19912446 36.86414387 -1.12419919 40.6347308 -1.05067444 44.40541077 C-1.02363937 45.57233963 -0.99660431 46.73926849 -0.96875 47.94155884 C-0.86790267 53.46466221 -0.90973768 58.68452562 -1.92958069 64.12025452 C-1.276026 63.90498108 -0.62247131 63.68970764 0.05088806 63.46791077 C4.24949014 62.98450121 7.4346436 64.20637865 11.38291931 65.55775452 C12.12348572 65.8007428 12.86405212 66.04373108 13.62705994 66.29408264 C15.44502046 66.8922503 17.25822686 67.50483311 19.07041931 68.12025452 C19.07041931 68.78025452 19.07041931 69.44025452 19.07041931 70.12025452 C20.06041931 70.39869202 20.06041931 70.39869202 21.07041931 70.68275452 C25.34964448 72.73321658 28.80079097 75.69020049 32.07041931 79.12025452 C32.40041931 80.11025452 32.73041931 81.10025452 33.07041931 82.12025452 C30.27803223 80.84442249 28.26792726 79.49909035 26.07041931 77.37025452 C18.40692224 70.70138154 9.42901063 67.58901794 -0.41004944 65.66322327 C-2.92958069 65.12025452 -2.92958069 65.12025452 -3.92958069 64.12025452 C-4.02883842 62.16200754 -4.05757483 60.20015555 -4.05897522 58.23939514 C-4.06212738 56.98139099 -4.06527954 55.72338684 -4.06852722 54.42726135 C-4.06673744 53.04367539 -4.06468649 51.66008974 -4.06239319 50.27650452 C-4.06306628 48.86785363 -4.06403634 47.45920286 -4.06529236 46.05055237 C-4.06676911 43.09477129 -4.06461552 40.13902038 -4.05995178 37.1832428 C-4.05425449 33.38650868 -4.05753362 29.58984523 -4.06352425 25.79311371 C-4.06713048 22.88329024 -4.06599099 19.97348364 -4.06339645 17.06365967 C-4.06272736 15.66336051 -4.06355501 14.26305984 -4.06587601 12.86276245 C-4.06840351 10.90887988 -4.06387102 8.95499197 -4.05897522 7.00111389 C-4.05817963 5.88716248 -4.05738403 4.77321106 -4.05656433 3.62550354 C-3.87308494 0.00565487 -3.67017139 0.15065456 0 0 Z " fill="#735757" transform="translate(342.92958068847656,8.879745483398438)"/>
<path d="M0 0 C3.21408862 3.1195566 3.51746105 6.73718539 4.125 11.0625 C3.795 11.0625 3.465 11.0625 3.125 11.0625 C2.465 13.3725 1.805 15.6825 1.125 18.0625 C0.465 18.0625 -0.195 18.0625 -0.875 18.0625 C-0.875 19.3825 -0.875 20.7025 -0.875 22.0625 C-3.185 22.3925 -5.495 22.7225 -7.875 23.0625 C-10 10.3125 -10 10.3125 -7.875 6.0625 C-7.215 6.0625 -6.555 6.0625 -5.875 6.0625 C-5.875 5.4025 -5.875 4.7425 -5.875 4.0625 C-4.375 2.4375 -4.375 2.4375 -2.875 1.0625 C-4.195 1.3925 -5.515 1.7225 -6.875 2.0625 C-6.875 2.7225 -6.875 3.3825 -6.875 4.0625 C-7.535 4.0625 -8.195 4.0625 -8.875 4.0625 C-8.875 4.7225 -8.875 5.3825 -8.875 6.0625 C-9.535 6.0625 -10.195 6.0625 -10.875 6.0625 C-10.84019531 7.17109375 -10.80539062 8.2796875 -10.76953125 9.421875 C-10.74138651 10.88540148 -10.71408708 12.34894439 -10.6875 13.8125 C-10.64979492 14.90691406 -10.64979492 14.90691406 -10.61132812 16.0234375 C-10.56674047 19.29319901 -10.66171891 21.65732885 -12.19921875 24.578125 C-13.875 26.0625 -13.875 26.0625 -16.875 26.0625 C-17.4525 24.928125 -18.03 23.79375 -18.625 22.625 C-20.22992635 19.68939703 -20.22992635 19.68939703 -23.125 18.125 C-23.7025 18.104375 -24.28 18.08375 -24.875 18.0625 C-23.08529075 11.08263393 -19.35045002 5.26887937 -14 0.5 C-9.0781616 -1.76404567 -5.22685946 -1.70441069 0 0 Z " fill="#6B4E48" transform="translate(361.875,96.9375)"/>
<path d="M0 0 C0.99 0.33 1.98 0.66 3 1 C3 1.66 3 2.32 3 3 C7.63070172 4.92732705 12.35976939 6.3639661 17.16015625 7.8046875 C20.26154718 9.11008726 21.87258168 10.4156535 24 13 C25.00496852 16.01490557 25.10335303 18.04181692 25.0625 21.1875 C25.05347656 22.08855469 25.04445313 22.98960937 25.03515625 23.91796875 C25.02355469 24.60503906 25.01195312 25.29210937 25 26 C21.92009655 27.53995173 19.41257239 27.22377524 16 27 C11.31231632 25.38355735 7.62343303 23.40383103 4 20 C4 19.34 4 18.68 4 18 C3.34 18 2.68 18 2 18 C1.34 16.35 0.68 14.7 0 13 C-0.99 13.33 -1.98 13.66 -3 14 C-3 13.34 -3 12.68 -3 12 C-2.34 12 -1.68 12 -1 12 C-0.67 8.04 -0.34 4.08 0 0 Z " fill="#6A4C43" transform="translate(315,121)"/>
<path d="M0 0 C-0.33 0.99 -0.66 1.98 -1 3 C-1.66 3 -2.32 3 -3 3 C-3 3.66 -3 4.32 -3 5 C-3.66 5 -4.32 5 -5 5 C-5.09688221 10.44693314 -5.12862175 15.63904667 -4 21 C-2.02 21 -0.04 21 2 21 C2 19.68 2 18.36 2 17 C2.66 17 3.32 17 4 17 C4.33 14.36 4.66 11.72 5 9 C5.33 9 5.66 9 6 9 C6.66959592 15.42812081 4.85709267 18.91262777 1 24 C-1.70060841 27.20697249 -3.97347308 28.79204192 -8 30 C-9.32 30 -10.64 30 -12 30 C-11.89300781 30.72445312 -11.78601563 31.44890625 -11.67578125 32.1953125 C-10.42227478 42.30423565 -10.42227478 42.30423565 -14 47 C-16.78407233 49.96916302 -19.28095214 51.8124166 -23.3984375 52.26171875 C-31.16671251 51.84342702 -36.15337703 48.47532432 -41.875 43.5 C-43.96606313 41.03992572 -45.03798419 39.06095941 -46 36 C-45.34 36 -44.68 36 -44 36 C-43.34 37.65 -42.68 39.3 -42 41 C-41.34 41 -40.68 41 -40 41 C-39.278125 41.763125 -38.55625 42.52625 -37.8125 43.3125 C-33.34368348 47.58270246 -29.17856466 49.16829729 -23.0625 49.1875 C-21.70772411 49.14000368 -20.35307462 49.0828413 -19 49 C-19.20198219 46.91385563 -19.43769321 44.83095932 -19.6875 42.75 C-19.81511719 41.58984375 -19.94273437 40.4296875 -20.07421875 39.234375 C-21.21857549 35.23636918 -22.49472051 34.15130887 -26 32 C-28.46969582 31.0146431 -28.46969582 31.0146431 -31 30.4375 C-34.73315859 29.40267512 -37.93319012 28.47323377 -41 26 C-41.8125 23.8125 -41.8125 23.8125 -42 22 C-42.66 22 -43.32 22 -44 22 C-44 18.7 -44 15.4 -44 12 C-43.34 12.33 -42.68 12.66 -42 13 C-41.25517713 15.67259973 -40.59677922 18.29694119 -40 21 C-39.67046358 22.33427682 -39.33826147 23.66790839 -39 25 C-38.27554687 25.18175781 -37.55109375 25.36351563 -36.8046875 25.55078125 C-22.42238069 29.29018102 -22.42238069 29.29018102 -18 36 C-16.88347914 38.30492075 -15.93655203 40.61179233 -15 43 C-13.06718676 39.13437352 -13.54968685 34.68798363 -14.63671875 30.61328125 C-15.15150141 29.09404462 -15.68641991 27.58140352 -16.24609375 26.078125 C-16.97486692 24.06927875 -17.51744874 22.08012389 -18 20 C-18.66 20 -19.32 20 -20 20 C-20 19.01 -20 18.02 -20 17 C-18.125 17.625 -18.125 17.625 -16 19 C-14.75 22.125 -14.75 22.125 -14 25 C-10.87802522 23.6910428 -10.87802522 23.6910428 -9 21 C-8.7677354 18.28737884 -8.58063765 15.59226874 -8.4375 12.875 C-8.37272461 11.74384766 -8.37272461 11.74384766 -8.30664062 10.58984375 C-8.2005168 8.72678112 -8.09974999 6.86341476 -8 5 C-7.34 5 -6.68 5 -6 5 C-6 4.34 -6 3.68 -6 3 C-5.34 3 -4.68 3 -4 3 C-4 2.34 -4 1.68 -4 1 C-2 0 -2 0 0 0 Z " fill="#685351" transform="translate(359,98)"/>
<path d="M0 0 C0.33 0 0.66 0 1 0 C0.67 68.31 0.34 136.62 0 207 C23.43 207 46.86 207 71 207 C71.33 204.03 71.66 201.06 72 198 C72.33 198 72.66 198 73 198 C73.02688151 199.64574566 73.04634123 201.29161413 73.0625 202.9375 C73.07410156 203.85402344 73.08570312 204.77054688 73.09765625 205.71484375 C73 208 73 208 72 209 C69.76612794 209.0996392 67.52906141 209.12799795 65.29296875 209.12939453 C64.59217194 209.13114685 63.89137512 209.13289917 63.16934204 209.13470459 C60.84203651 209.13912266 58.51480636 209.13618529 56.1875 209.1328125 C54.57706691 209.13348555 52.96663391 209.13445559 51.35620117 209.13571167 C47.97671545 209.13718858 44.5972561 209.13503431 41.21777344 209.13037109 C36.87623495 209.1246738 32.53475827 209.12795285 28.19322205 209.13394356 C24.86649099 209.13754936 21.5397747 209.1364105 18.21304321 209.13381577 C16.61178582 209.13314655 15.0105271 209.13397474 13.40927124 209.13629532 C11.17515489 209.13882216 8.94114 209.13498085 6.70703125 209.12939453 C4.79627808 209.12820114 4.79627808 209.12820114 2.84692383 209.12698364 C-0 209 -0 209 -1 208 C-1.09999872 205.42330324 -1.13440764 202.87334569 -1.12698364 200.29611206 C-1.12854363 199.47940257 -1.13010362 198.66269308 -1.13171089 197.82123482 C-1.13572454 195.06293419 -1.13252976 192.30468784 -1.12939453 189.54638672 C-1.13074847 187.57732613 -1.13252837 185.60826579 -1.13470459 183.63920593 C-1.13928155 178.27325751 -1.13748782 172.90732822 -1.1343255 167.54137945 C-1.13180112 161.93254385 -1.13413986 156.32370993 -1.13571167 150.71487427 C-1.13753404 141.28745224 -1.13512624 131.86003803 -1.13037109 122.43261719 C-1.1249378 111.53493492 -1.12668407 100.63727138 -1.1321975 89.73958957 C-1.13673801 80.39091579 -1.13737429 71.04224765 -1.13475883 61.69357312 C-1.13320001 56.10702083 -1.13299132 50.52047735 -1.13629532 44.93392563 C-1.13918729 39.6759917 -1.1371739 34.41808186 -1.13140106 29.16015053 C-1.13008018 27.23124672 -1.13045618 25.30234088 -1.13266373 23.37343788 C-1.13540186 20.73752795 -1.13196142 18.10169485 -1.12698364 15.46578979 C-1.12921436 14.7047812 -1.13144509 13.9437726 -1.13374341 13.15970314 C-1.11730148 8.66116982 -0.73274873 4.4240518 0 0 Z " fill="#75585C" transform="translate(39,73)"/>
<path d="M0 0 C0.33 0 0.66 0 1 0 C2.54588331 8.64405963 3.28826131 16.95735062 3.25537109 25.73168945 C3.26080177 27.52942558 3.26080177 27.52942558 3.26634216 29.36347961 C3.27495468 32.60698245 3.27526855 35.8503674 3.2729907 39.09387612 C3.2737464 42.50941207 3.28886593 45.92487717 3.30337524 49.34037781 C3.35009536 60.93758701 3.37435403 72.53478069 3.38085938 84.13208008 C3.38461691 90.56011947 3.40268901 96.98796408 3.43595374 103.41591996 C3.45278937 106.80645663 3.46203118 110.19663913 3.45301437 113.58721352 C3.44594362 117.36353624 3.46322453 121.13903807 3.48583984 124.9152832 C3.47766739 126.02558899 3.46949493 127.13589478 3.46107483 128.27984619 C3.53872906 135.5754773 4.43291237 141.47038177 9.859375 146.83984375 C14.6561131 149.62472682 18.44581354 150.7024543 24 151 C22 153 22 153 20.01171875 153.08203125 C15.38145189 152.54507593 11.74712789 152.02187733 8 149 C8 148.34 8 147.68 8 147 C7.01 146.67 6.02 146.34 5 146 C5 145.01 5 144.02 5 143 C4.34 143 3.68 143 3 143 C1.26968882 139.24038212 0.74405749 136.28653064 0.7215271 132.15971375 C0.71036362 130.99168716 0.69920013 129.82366058 0.68769836 128.62023926 C0.68553818 127.34781372 0.68337799 126.07538818 0.68115234 124.7644043 C0.6718491 123.40407213 0.66167983 122.04374566 0.65071106 120.6834259 C0.62344158 116.99790116 0.60827075 113.31241458 0.59528303 109.62681556 C0.57963911 105.77239089 0.55285291 101.918044 0.5272522 98.06367493 C0.48048673 90.76818146 0.44373183 83.47267332 0.41057932 76.17710668 C0.37234216 67.86996649 0.32293617 59.56290445 0.27259517 51.25583017 C0.16930852 34.17061 0.08003751 17.08534458 0 0 Z " fill="#73595B" transform="translate(219,70)"/>
<path d="M0 0 C5.84917507 -0.07507333 11.69805967 -0.129031 17.54760742 -0.16479492 C19.53073014 -0.17972977 21.51382073 -0.20008507 23.49682617 -0.22631836 C35.40501674 -0.37972016 46.42919276 -0.01595828 58 3 C58 3.33 58 3.66 58 4 C56.64595503 4.02763357 55.29173445 4.04667422 53.9375 4.0625 C53.18339844 4.07410156 52.42929687 4.08570313 51.65234375 4.09765625 C49 4 49 4 45.8828125 3.5 C41.61888951 2.9509234 37.51361647 2.87357576 33.22265625 2.90234375 C32.50235229 2.90335083 31.78204834 2.90435791 31.03991699 2.90539551 C28.38076151 2.91057905 25.72162895 2.92453983 23.0625 2.9375 C14.1215625 2.9684375 14.1215625 2.9684375 5 3 C4.67 17.52 4.34 32.04 4 47 C2.515 47.495 2.515 47.495 1 48 C-0.70939135 38.03032602 -1.28314759 28.4935078 -1.1875 18.375 C-1.18603763 17.02734439 -1.18538384 15.67968765 -1.18554688 14.33203125 C-1.1395815 4.20943477 -1.1395815 4.20943477 0 0 Z " fill="#664C4C" transform="translate(588,9)"/>
<path d="M0 0 C0.33 0 0.66 0 1 0 C1.01030746 0.64320694 1.02061493 1.28641388 1.03123474 1.94911194 C1.14040885 8.71526015 1.25489901 15.48130435 1.37231445 22.24731445 C1.41531225 24.76389362 1.45700767 27.28049543 1.49731445 29.79711914 C1.77875938 47.82734595 1.77875938 47.82734595 2.79272461 65.82641602 C3.14343978 71.19619982 3.10672743 76.55876454 3.0625 81.9375 C3.05798828 83.01451172 3.05347656 84.09152344 3.04882812 85.20117188 C3.03727402 87.80084555 3.02099326 90.40038849 3 93 C2.67 93 2.34 93 2 93 C1.67 89.37 1.34 85.74 1 82 C0.67 107.41 0.34 132.82 0 159 C-0.33 159 -0.66 159 -1 159 C-1.02332721 138.41663162 -1.0409783 117.83326541 -1.05181217 97.24988651 C-1.05697551 87.69336061 -1.06401892 78.13684291 -1.07543945 68.58032227 C-1.08538514 60.25397993 -1.09185315 51.92764352 -1.09408849 43.60129541 C-1.0953958 39.18975143 -1.09848288 34.77822443 -1.10573006 30.36668587 C-1.11248846 26.21929613 -1.11461733 22.07193047 -1.11310768 17.92453575 C-1.11338409 16.3978627 -1.11539028 14.87118888 -1.11920547 13.34452057 C-1.12413994 11.26916541 -1.12299923 9.19390258 -1.12025452 7.11854553 C-1.12117631 5.95432099 -1.1220981 4.79009645 -1.12304783 3.59059238 C-1 1 -1 1 0 0 Z " fill="#5B4441" transform="translate(412,10)"/>
<path d="M0 0 C23.76 0 47.52 0 72 0 C73.36239076 2.72478152 73.11969958 4.86840855 73.11352539 7.91845703 C73.11341209 9.78016037 73.11341209 9.78016037 73.11329651 11.67947388 C73.1081895 13.03892049 73.1029735 14.39836669 73.09765625 15.7578125 C73.09579142 17.14500884 73.09436782 18.53220584 73.09336853 19.91940308 C73.08954848 23.57234512 73.07972255 27.22524748 73.06866455 30.87817383 C73.05843944 34.60497501 73.05386855 38.33178259 73.04882812 42.05859375 C73.03809983 49.37241394 73.02102954 56.68620141 73 64 C71.35 64.66 69.7 65.32 68 66 C68 65.01 68 64.02 68 63 C68.99 63 69.98 63 71 63 C71 42.54 71 22.08 71 1 C62.585 1.495 62.585 1.495 54 2 C49.6727635 2.09421838 45.36153198 2.16335461 41.03515625 2.16796875 C39.90975937 2.17129715 38.78436249 2.17462555 37.62486267 2.17805481 C35.28677777 2.18305152 32.94868593 2.18546543 30.6105957 2.18530273 C27.01697592 2.18752819 23.42364542 2.20586372 19.83007812 2.22460938 C17.54427187 2.22753706 15.25846418 2.22952603 12.97265625 2.23046875 C11.89887222 2.23765427 10.8250882 2.24483978 9.71876526 2.25224304 C8.73270798 2.24916641 7.7466507 2.24608978 6.73071289 2.24291992 C5.42862633 2.24505745 5.42862633 2.24505745 4.10023499 2.24723816 C2 2 2 2 0 0 Z " fill="#795D62" transform="translate(259,9)"/>
<path d="M0 0 C-1 3 -1 3 -3.703125 4.46484375 C-34.3609704 17.19392714 -66.46541456 20.46695404 -99 13 C-99 12.34 -99 11.68 -99 11 C-97.9881665 11.14074951 -96.97633301 11.28149902 -95.93383789 11.42651367 C-85.85908921 12.7596195 -75.94816061 13.34421565 -65.78833008 13.31567383 C-63.43459374 13.31249608 -61.08209997 13.33617308 -58.72851562 13.36132812 C-39.81182722 13.4395385 -21.57163215 9.55968218 -4.546875 1.171875 C-2 0 -2 0 0 0 Z " fill="#775D5F" transform="translate(522,270)"/>
<path d="M0 0 C0.33 0 0.66 0 1 0 C3.75984107 19.90539264 3.23435314 39.94583598 3.1373291 59.99047852 C3.11658869 64.7377747 3.10767612 69.4850931 3.09765625 74.23242188 C3.07643348 83.48833851 3.04245998 92.74415806 3 102 C0.79589525 98.69384287 0.73567156 97.62344621 0.68115234 93.77050781 C0.66128769 92.69410034 0.64142303 91.61769287 0.62095642 90.50866699 C0.60940018 89.33533813 0.59784393 88.16200928 0.5859375 86.953125 C0.56652603 85.72952271 0.54711456 84.50592041 0.52711487 83.24523926 C0.47694839 79.93166593 0.43566212 76.6182224 0.39890671 73.30448914 C0.36711366 70.57226575 0.32811789 67.84016483 0.28913784 65.10803604 C-0.0188674 43.40590393 -0.13106299 21.70403061 0 0 Z " fill="#605054" transform="translate(412,82)"/>
<path d="M0 0 C4.08280609 2.60619122 7.62539459 5.53279871 11 9 C10.67 9.99 10.34 10.98 10 12 C9.505 10.515 9.505 10.515 9 9 C8.01 8.67 7.02 8.34 6 8 C6 7.34 6 6.68 6 6 C5.34 6 4.68 6 4 6 C4 5.34 4 4.68 4 4 C3.46375 3.87625 2.9275 3.7525 2.375 3.625 C-0.47901595 2.87394317 -3.23803841 2.04340771 -6 1 C-6.495 0.01 -6.495 0.01 -7 -1 C-17.2165875 -1.28734152 -26.90994238 -0.46764474 -37 1 C-37 1.66 -37 2.32 -37 3 C-37.99 3 -38.98 3 -40 3 C-40 3.66 -40 4.32 -40 5 C-40.99 5 -41.98 5 -43 5 C-43.433125 5.8971875 -43.433125 5.8971875 -43.875 6.8125 C-45 9 -45 9 -47 12 C-47.66 12 -48.32 12 -49 12 C-49.66 14.31 -50.32 16.62 -51 19 C-51.66 18.67 -52.32 18.34 -53 18 C-54.32 21.96 -55.64 25.92 -57 30 C-57.33 30 -57.66 30 -58 30 C-57.20023136 18.80323898 -52.15984015 11.62435064 -44 4 C-31.27398614 -5.42811392 -14.19629625 -7.5360209 0 0 Z " fill="#74595B" transform="translate(642,211)"/>
<path d="M0 0 C2.67220913 0.36757462 3.79108836 0.77376156 5.6484375 2.78515625 C6.21820313 3.53667969 6.78796875 4.28820312 7.375 5.0625 C14.48173281 13.36030535 24.41988932 18.19766903 34.98828125 20.52734375 C37 21 37 21 38 22 C38.11351001 24.76487496 38.16418537 27.50381122 38.16796875 30.26953125 C38.17296135 31.51835335 38.17296135 31.51835335 38.17805481 32.79240417 C38.18312868 34.55861863 38.18546299 36.32484272 38.18530273 38.09106445 C38.18748239 40.79068926 38.20561408 43.48990108 38.22460938 46.18945312 C38.22754458 47.90364443 38.22952853 49.61783769 38.23046875 51.33203125 C38.23765427 52.13945267 38.24483978 52.94687408 38.25224304 53.77876282 C38.23516067 57.98329153 37.9256982 60.14860361 36 64 C36 50.47 36 36.94 36 23 C35.01 23.33 34.02 23.66 33 24 C24.16643157 21.43405869 10.82037413 15.45169007 5 8 C5 7.01 5 6.02 5 5 C4.34 5 3.68 5 3 5 C1.375 2.5 1.375 2.5 0 0 Z " fill="#755E5E" transform="translate(294,150)"/>
<path d="M0 0 C1.63480164 2.88680058 2.25904496 5.00048765 2.31884766 8.30957031 C2.33871735 9.15013977 2.35858704 9.99070923 2.37905884 10.85675049 C2.39638565 12.20383087 2.39638565 12.20383087 2.4140625 13.578125 C2.43342865 14.5046991 2.4527948 15.43127319 2.4727478 16.38592529 C2.53244767 19.34052371 2.57889068 22.29516129 2.625 25.25 C2.6631886 27.25522517 2.70224085 29.26043409 2.7421875 31.265625 C2.8381414 36.17695111 2.92220803 41.088354 3 46 C5.8724765 45.84644705 8.74484967 45.69126459 11.6171875 45.53515625 C12.82797974 45.47068298 12.82797974 45.47068298 14.06323242 45.40490723 C19.73128207 45.09513837 25.35814675 44.63698343 31 44 C31 44.66 31 45.32 31 46 C21.25422643 48.65793825 12.08987265 49.15365288 2 49 C0.27409025 46.00018795 -0.24642679 43.86396801 -0.22705078 40.41503906 C-0.22689972 39.51440735 -0.22674866 38.61377563 -0.22659302 37.68585205 C-0.21627045 36.72217712 -0.20594788 35.7585022 -0.1953125 34.765625 C-0.1924826 33.77246277 -0.18965271 32.77930054 -0.18673706 31.75604248 C-0.17555143 28.58723856 -0.15044962 25.41871835 -0.125 22.25 C-0.11496812 20.1002645 -0.10584263 17.95052457 -0.09765625 15.80078125 C-0.07561741 10.53375754 -0.04215584 5.26689904 0 0 Z " fill="#705B5B" transform="translate(608,143)"/>
<path d="M0 0 C0.33 0 0.66 0 1 0 C1.33 20.79 1.66 41.58 2 63 C4.475 62.505 4.475 62.505 7 62 C9.03637695 62.34545898 9.03637695 62.34545898 10.98828125 62.99609375 C11.69404297 63.22490234 12.39980469 63.45371094 13.12695312 63.68945312 C13.84818359 63.93630859 14.56941406 64.18316406 15.3125 64.4375 C16.05306641 64.68048828 16.79363281 64.92347656 17.55664062 65.17382812 C19.37460115 65.77199578 21.18780755 66.38457859 23 67 C23 67.66 23 68.32 23 69 C23.99 69.2784375 23.99 69.2784375 25 69.5625 C29.27922517 71.61296206 32.73037166 74.56994597 36 78 C36.33 78.99 36.66 79.98 37 81 C34.20761291 79.72416797 32.19750795 78.37883583 30 76.25 C22.33650293 69.58112702 13.35859132 66.46876343 3.51953125 64.54296875 C1 64 1 64 0 63 C-0.0940067 61.03630847 -0.11743381 59.06920801 -0.11352539 57.10327148 C-0.11344986 55.84203964 -0.11337433 54.5808078 -0.11329651 53.28135681 C-0.1081891 51.89460206 -0.10297309 50.50784771 -0.09765625 49.12109375 C-0.09579201 47.71004791 -0.09436814 46.29900143 -0.09336853 44.88795471 C-0.08954379 41.16759465 -0.0797139 37.4472734 -0.06866455 33.72692871 C-0.05844948 29.93319219 -0.05387071 26.13944942 -0.04882812 22.34570312 C-0.03809158 14.89711769 -0.0210157 7.44856428 0 0 Z " fill="#785B60" transform="translate(339,10)"/>
<path d="M0 0 C0.99 0.33 1.98 0.66 3 1 C-11.63955928 17.73497009 -28.10104192 30.38084289 -50 36 C-52.9375 36.125 -52.9375 36.125 -55 36 C-55.33 35.34 -55.66 34.68 -56 34 C-55.37996094 33.85304687 -54.75992188 33.70609375 -54.12109375 33.5546875 C-46.98192301 31.74651325 -40.35604362 29.23609058 -33.578125 26.40234375 C-31.01733863 25.39871678 -28.74542974 24.65485861 -26.109375 24.00390625 C-25.08328125 23.67261719 -24.0571875 23.34132812 -23 23 C-22.505 21.515 -22.505 21.515 -22 20 C-20.33927151 19.31867549 -18.672233 18.65257873 -17 18 C-16.34 17.01 -15.68 16.02 -15 15 C-14.34 15 -13.68 15 -13 15 C-13 14.34 -13 13.68 -13 13 C-11.42578125 11.484375 -11.42578125 11.484375 -9.3125 9.75 C-5.76035397 6.74045531 -2.86029631 3.66475465 0 0 Z " fill="#75595D" transform="translate(696,152)"/>
<path d="M0 0 C1.66666667 1.66666667 3.33333333 3.33333333 5 5 C5.928125 5.886875 6.85625 6.77375 7.8125 7.6875 C10 10 10 10 10 12 C10.639375 12.2475 11.27875 12.495 11.9375 12.75 C15.24726421 14.10092417 18.4795742 15.58642106 21.71875 17.09765625 C32.58127716 21.39430655 47.31238407 19.95488871 58 16 C57.505 17.485 57.505 17.485 57 19 C48.53448042 23.05928603 38.19548432 22.68737509 29 23 C29 22.34 29 21.68 29 21 C28.39671875 20.95101562 27.7934375 20.90203125 27.171875 20.8515625 C26.37265625 20.77679688 25.5734375 20.70203125 24.75 20.625 C23.96109375 20.55539063 23.1721875 20.48578125 22.359375 20.4140625 C19.914123 19.98492887 18.15163097 19.21399362 16 18 C16 17.34 16 16.68 16 16 C15.26394531 15.90460938 14.52789062 15.80921875 13.76953125 15.7109375 C10.61111058 14.90017225 9.10439018 13.78244999 6.6875 11.625 C5.99011719 11.01914063 5.29273438 10.41328125 4.57421875 9.7890625 C3 8 3 8 3 5 C2.01 4.67 1.02 4.34 0 4 C0 2.68 0 1.36 0 0 Z " fill="#745B5E" transform="translate(421,203)"/>
<path d="M0 0 C0.66 0 1.32 0 2 0 C2.59033894 8.55991457 0.86199157 17.27601686 -3 25 C-3.66 25 -4.32 25 -5 25 C-5.495 27.475 -5.495 27.475 -6 30 C-6.66 30 -7.32 30 -8 30 C-8 30.99 -8 31.98 -8 33 C-8.99 33 -9.98 33 -11 33 C-11 33.66 -11 34.32 -11 35 C-13.1953125 36.65625 -13.1953125 36.65625 -16.125 38.5 C-17.07632813 39.1084375 -18.02765625 39.716875 -19.0078125 40.34375 C-23.69301055 42.93712334 -28.05518155 44.19366337 -33.375 44.625 C-34.24898437 44.69976562 -35.12296875 44.77453125 -36.0234375 44.8515625 C-36.67570313 44.90054688 -37.32796875 44.94953125 -38 45 C-38 44.01 -38 43.02 -38 42 C-37.24976563 41.91363281 -36.49953125 41.82726562 -35.7265625 41.73828125 C-25.41944928 40.3233249 -16.08737784 36.93931329 -9 29 C-2.82417227 20.55241003 -0.9830207 10.2234153 0 0 Z " fill="#705858" transform="translate(650,96)"/>
<path d="M0 0 C1.47930356 0.00538908 2.95888164 -0.01715906 4.4375 -0.0625 C8.67217845 -0.12709679 12.00188071 0.63893811 16 2 C16 2.66 16 3.32 16 4 C16.66 4 17.32 4 18 4 C18 4.66 18 5.32 18 6 C19.485 6.495 19.485 6.495 21 7 C23.04108797 10.00791911 23.19878036 12.42195344 23 16 C21 14 21 14 19.625 11.0625 C17.62867834 7.30020148 15.73237732 5.64029145 11.73828125 4.1640625 C5.44390146 2.76531143 0.75574654 2.91127265 -5 6 C-7.87640616 8.37500791 -7.87640616 8.37500791 -10 11 C-11 12 -12 13 -13 14 C-12.22890446 8.91076944 -10.51832292 4.31363492 -7.6875 0 C-5.02886592 -1.57548686 -2.97787297 -0.60660375 0 0 Z " fill="#725558" transform="translate(125,68)"/>
<path d="M0 0 C5.84917507 -0.07507333 11.69805967 -0.129031 17.54760742 -0.16479492 C19.53073014 -0.17972977 21.51382073 -0.20008507 23.49682617 -0.22631836 C35.40501674 -0.37972016 46.42919276 -0.01595828 58 3 C58 3.33 58 3.66 58 4 C56.64595503 4.02763357 55.29173445 4.04667422 53.9375 4.0625 C53.18339844 4.07410156 52.42929687 4.08570313 51.65234375 4.09765625 C49 4 49 4 45.91943359 3.51586914 C41.47508786 2.93091196 37.11346488 2.75517174 32.63671875 2.6484375 C31.32692802 2.61370834 31.32692802 2.61370834 29.99067688 2.57827759 C28.15781784 2.530917 26.32490356 2.48565185 24.49194336 2.44238281 C21.67864847 2.37478732 18.86574682 2.29714101 16.05273438 2.21875 C14.26824427 2.17387441 12.48373937 2.12958278 10.69921875 2.0859375 C9.85654953 2.06203949 9.01388031 2.03814148 8.14567566 2.01351929 C3.94131998 1.79548258 3.94131998 1.79548258 0 3 C0 2.01 0 1.02 0 0 Z " fill="#775C5D" transform="translate(588,9)"/>
<path d="M0 0 C1.32 0.33 2.64 0.66 4 1 C-4.16215428 11.45776017 -14.48322571 18.33899903 -26.1875 24.3125 C-26.86490234 24.6623999 -27.54230469 25.0122998 -28.24023438 25.37280273 C-32.16187007 27.32448036 -35.5857651 28.52631072 -40 29 C-40 28.34 -40 27.68 -40 27 C-39.04480469 26.64808594 -38.08960938 26.29617188 -37.10546875 25.93359375 C-28.750171 22.77500268 -21.32525203 19.19894283 -14 14 C-13.20207031 13.43667969 -12.40414063 12.87335938 -11.58203125 12.29296875 C-7.70447624 9.66694406 -7.70447624 9.66694406 -5 6 C-4.34 6 -3.68 6 -3 6 C-3 5.34 -3 4.68 -3 4 C-2.34 4 -1.68 4 -1 4 C-0.67 2.68 -0.34 1.36 0 0 Z " fill="#755B5D" transform="translate(310,253)"/>
<path d="M0 0 C0.33 0 0.66 0 1 0 C1.25943213 5.72276767 0.36628583 10.6099194 -1.125 16.125 C-1.34945801 16.9610376 -1.57391602 17.7970752 -1.80517578 18.65844727 C-5.01727392 30.1458374 -10.60068597 47.2336341 -21 54 C-20.52681273 49.74131459 -20.04239237 47.91138026 -17 45 C-11.25806721 37.10283193 -8.19204289 28.12335662 -5 19 C-4.34 19 -3.68 19 -3 19 C-2.86722656 17.71222656 -2.73445312 16.42445313 -2.59765625 15.09765625 C-2.41950101 13.41924638 -2.24110308 11.74086227 -2.0625 10.0625 C-1.97548828 9.21236328 -1.88847656 8.36222656 -1.79882812 7.48632812 C-1.71181641 6.67744141 -1.62480469 5.86855469 -1.53515625 5.03515625 C-1.456604 4.2862915 -1.37805176 3.53742676 -1.29711914 2.76586914 C-1 1 -1 1 0 0 Z " fill="#74565B" transform="translate(575,190)"/>
<path d="M0 0 C0.66 0.33 1.32 0.66 2 1 C0.4136989 4.1726022 -2.79878989 5.07351606 -5.875 6.5625 C-6.51308594 6.87896484 -7.15117188 7.19542969 -7.80859375 7.52148438 C-10.51183616 8.85053153 -13.13895891 10.04631964 -16 11 C-16 11.99 -16 12.98 -16 14 C-17.65 14 -19.3 14 -21 14 C-21.2475 14.61875 -21.495 15.2375 -21.75 15.875 C-23.20628639 18.35068687 -24.37812506 18.95125002 -27 20 C-27 20.66 -27 21.32 -27 22 C-27.66 22 -28.32 22 -29 22 C-29.226875 22.515625 -29.45375 23.03125 -29.6875 23.5625 C-31.48217618 26.89547005 -33.49965015 30.14703671 -36 33 C-36.66 33 -37.32 33 -38 33 C-38 33.66 -38 34.32 -38 35 C-38.66 34.67 -39.32 34.34 -40 34 C-29.64954915 18.79235434 -17.0610894 7.21815321 0 0 Z " fill="#76595B" transform="translate(90,11)"/>
<path d="M0 0 C0.99 0.495 0.99 0.495 2 1 C2.74482287 3.67259973 3.40322078 6.29694119 4 9 C4.32953642 10.33427682 4.66173853 11.66790839 5 13 C5.72445313 13.18175781 6.44890625 13.36351563 7.1953125 13.55078125 C21.30581614 17.2195122 21.30581614 17.2195122 26 24 C27.26237731 26.52475462 27.09856404 28.31200466 27.0625 31.125 C27.05347656 32.03507812 27.04445313 32.94515625 27.03515625 33.8828125 C27.02355469 34.58148438 27.01195312 35.28015625 27 36 C26.34 35.67 25.68 35.34 25 35 C24.6598613 33.24116315 24.40186853 31.46605209 24.1875 29.6875 C23.43299842 25.2379099 23.43299842 25.2379099 21 21.5 C17.53879117 19.76939558 14.09986453 18.74238048 10.37890625 17.7109375 C7.53853169 16.86208993 5.31413228 15.86623571 3 14 C2.1875 11.8125 2.1875 11.8125 2 10 C1.34 10 0.68 10 0 10 C0 6.7 0 3.4 0 0 Z " fill="#95736A" transform="translate(315,110)"/>
<path d="M0 0 C0.66 0 1.32 0 2 0 C3.41680273 9.59329078 3.41680273 9.59329078 2 14.375 C-0.61432123 17.80629662 -2.95801709 20.34233285 -7 22 C-14.09270649 22.77395983 -19.54003054 20.32906264 -25 16 C-28.54061826 12.92120151 -30.58813202 10.49230719 -32 6 C-31.34 6 -30.68 6 -30 6 C-29.34 7.65 -28.68 9.3 -28 11 C-27.34 11 -26.68 11 -26 11 C-24.9171875 12.1446875 -24.9171875 12.1446875 -23.8125 13.3125 C-19.34368348 17.58270246 -15.17856466 19.16829729 -9.0625 19.1875 C-7.721875 19.125625 -6.38125 19.06375 -5 19 C-4.34 16.36 -3.68 13.72 -3 11 C-2.34 11.66 -1.68 12.32 -1 13 C0.32229189 10.35541621 0.09677194 8.32238699 0.0625 5.375 C0.05347656 4.37210938 0.04445313 3.36921875 0.03515625 2.3359375 C0.02355469 1.56507813 0.01195312 0.79421875 0 0 Z " fill="#725C62" transform="translate(345,128)"/>
<path d="M0 0 C1.94019166 1.82398226 2.92126738 3.32962453 3.234375 5.99560547 C3.25122058 8.48927768 3.15455498 10.94847275 3 13.4375 C2.94730957 14.33259277 2.89461914 15.22768555 2.84033203 16.14990234 C1.91225958 28.28472259 -2.54071414 40.57309094 -12.00390625 48.7265625 C-13.6171861 49.89333863 -15.30198217 50.96039725 -17 52 C-17 49 -17 49 -15.71484375 47.59765625 C-15.12832031 47.09105469 -14.54179687 46.58445313 -13.9375 46.0625 C-5.08465647 37.53288402 -0.11457919 26.29720228 0.171875 14.0859375 C0.21420755 9.387024 0.13141955 4.69703195 0 0 Z " fill="#71575B" transform="translate(385,111)"/>
<path d="M0 0 C0.99 0 1.98 0 3 0 C3.680625 1.670625 3.680625 1.670625 4.375 3.375 C5.72465986 6.96199008 5.72465986 6.96199008 8 9 C8 9.99 8 10.98 8 12 C8.66 12 9.32 12 10 12 C10 12.66 10 13.32 10 14 C10.66 14 11.32 14 12 14 C12.28875 14.639375 12.5775 15.27875 12.875 15.9375 C13.82823451 18.15206079 13.82823451 18.15206079 16 19 C17.0064275 20.66279327 18.00585407 22.32983484 19 24 C19.556875 24.556875 20.11375 25.11375 20.6875 25.6875 C21.120625 26.120625 21.55375 26.55375 22 27 C22 27.66 22 28.32 22 29 C22.598125 29.2475 23.19625 29.495 23.8125 29.75 C26.28647521 31.16370012 27.43370255 32.65055383 29 35 C24.43721384 33.57621089 21.53102949 31.03422485 18.25 27.6875 C17.72994385 27.1620459 17.2098877 26.6365918 16.67407227 26.09521484 C0 8.77422642 0 8.77422642 0 0 Z " fill="#735658" transform="translate(351,226)"/>
<path d="M0 0 C0.33 0.99 0.66 1.98 1 3 C2.98 3 4.96 3 7 3 C7.33 2.34 7.66 1.68 8 1 C10 3 10 3 10.3125 6.875 C10.24073833 9.69420851 10.02826135 10.94616885 8.6875 13.5 C7 15 7 15 4 15 C1.34513148 12.19196599 -0.91424202 8.83522074 -1.09765625 4.91015625 C-0.8125 3 -0.8125 3 0 0 Z " fill="#684C42" transform="translate(341,108)"/>
<path d="M0 0 C12.61321506 9.98546192 23.10203233 25.22861765 27 41 C27.09375 43.80859375 27.09375 43.80859375 27 46 C24.6849061 43.6849061 24.35239006 42.24734186 23.5 39.125 C22.79313539 36.55109084 22.12544363 34.24461508 20.90625 31.8671875 C20 30 20 30 20 27 C19.34 27 18.68 27 18 27 C16.515 23.535 16.515 23.535 15 20 C14.34 20 13.68 20 13 20 C12.7525 19.278125 12.505 18.55625 12.25 17.8125 C10.89191349 14.75680536 9.09616287 12.58526754 7 10 C7 9.34 7 8.68 7 8 C6.401875 7.731875 5.80375 7.46375 5.1875 7.1875 C2.98180967 5.99012525 1.56416813 4.95521016 0 3 C0 2.01 0 1.02 0 0 Z " fill="#74585D" transform="translate(686,33)"/>
<path d="M0 0 C1.07378906 0.2165625 2.14757812 0.433125 3.25390625 0.65625 C4.69003672 0.93784421 6.12623851 1.21907484 7.5625 1.5 C8.26697266 1.64308594 8.97144531 1.78617187 9.69726562 1.93359375 C15.92764654 3.13947393 21.68599974 3.82238308 27.75 1.5 C30.48167913 0.46845683 32.02786312 0 35 0 C34 3 34 3 32.2421875 3.94921875 C21.46883001 7.30922628 10.44028017 7.39590744 0 3 C0 2.01 0 1.02 0 0 Z " fill="#745A5A" transform="translate(606,281)"/>
<path d="M0 0 C0.33 0 0.66 0 1 0 C1.14586601 5.33031656 1.2880662 10.6607156 1.42724609 15.99121094 C1.47480506 17.79462149 1.52326948 19.59800844 1.57275391 21.40136719 C1.92504919 34.27092946 2.0623788 47.12570944 2 60 C0.35 60.66 -1.3 61.32 -3 62 C-3 61.01 -3 60.02 -3 59 C-2.01 59 -1.02 59 0 59 C0 39.53 0 20.06 0 0 Z " fill="#6E555B" transform="translate(330,13)"/>
<path d="M0 0 C3.69799593 0.75732378 6.23899117 2.43474385 9.40234375 4.46875 C18.00328361 9.53877771 27.30236732 13.60411428 37 16 C37 16.66 37 17.32 37 18 C24.87437204 17.15402596 12.92595878 10.72878338 3 4 C1.1015625 1.75390625 1.1015625 1.75390625 0 0 Z " fill="#7B5D60" transform="translate(179,266)"/>
<path d="M0 0 C2.70477437 4.05716155 2.53777764 7.40604579 2.75 12.1875 C2.81247925 13.52204224 2.81247925 13.52204224 2.8762207 14.88354492 C3.25294757 25.56255955 2.1087146 35.75567044 -1 46 C-1.33 46 -1.66 46 -2 46 C-2.09038099 40.84828377 -1.84681133 36.08086796 -1 31 C-1.33 31 -1.66 31 -2 31 C-2.16889434 28.12879629 -2.06553152 26.16587666 -1 23.46875 C0.3465769 18.79781136 0.21459489 14.45623192 0.125 9.625 C0.11146484 8.23474609 0.11146484 8.23474609 0.09765625 6.81640625 C0.07422937 4.54399923 0.04142748 2.2721382 0 0 Z " fill="#6E5455" transform="translate(713,81)"/>
<path d="M0 0 C1.11310547 0.00451172 2.22621094 0.00902344 3.37304688 0.01367188 C6.10292101 0.02538807 8.83268174 0.04179301 11.5625 0.0625 C11.5625 0.3925 11.5625 0.7225 11.5625 1.0625 C10.8919458 1.08231934 10.2213916 1.10213867 9.53051758 1.12255859 C6.47829839 1.21809715 3.42673659 1.32765945 0.375 1.4375 C-0.68009766 1.4684375 -1.73519531 1.499375 -2.82226562 1.53125 C-4.35463867 1.58925781 -4.35463867 1.58925781 -5.91796875 1.6484375 C-7.32405396 1.69556885 -7.32405396 1.69556885 -8.75854492 1.74365234 C-11.60745808 2.08272831 -13.83270444 2.88507457 -16.4375 4.0625 C-16.4375 4.3925 -16.4375 4.7225 -16.4375 5.0625 C-17.12457031 5.12308594 -17.81164062 5.18367187 -18.51953125 5.24609375 C-19.87111328 5.37177734 -19.87111328 5.37177734 -21.25 5.5 C-22.58998047 5.62181641 -22.58998047 5.62181641 -23.95703125 5.74609375 C-26.56493559 5.99739767 -26.56493559 5.99739767 -29.4375 7.0625 C-31.77049825 7.10204234 -34.10458189 7.10651732 -36.4375 7.0625 C-33.75857971 4.38357971 -30.81593412 3.90612625 -27.25 3 C-26.60224609 2.82662109 -25.95449219 2.65324219 -25.28710938 2.47460938 C-16.7645014 0.25243087 -8.75173761 -0.06752082 0 0 Z " fill="#74585C" transform="translate(129.4375,3.9375)"/>
<path d="M0 0 C0.87140625 0.44730469 1.7428125 0.89460938 2.640625 1.35546875 C10.30307787 5.25651129 18.02083449 8.78240445 26 12 C28.33845578 12.98858317 30.66918255 13.99351065 33 15 C33 15.33 33 15.66 33 16 C20.26536503 14.79252634 9.36526061 9.28369664 -1 2 C-0.67 1.34 -0.34 0.68 0 0 Z " fill="#745D5D" transform="translate(387,265)"/>
<path d="M0 0 C0.99 0.33 1.98 0.66 3 1 C-5.02717678 6.53372132 -12.16850752 9.53626323 -22 9 C-21.835 10.093125 -21.67 11.18625 -21.5 12.3125 C-20.83377888 17.53905159 -20.91298457 22.7404008 -21 28 C-21.33 28 -21.66 28 -22 28 C-23.02358943 21.3466687 -23.366142 14.73055151 -23 8 C-21.12362697 6.12362697 -17.95487391 6.16534722 -15.4375 5.6875 C-11.06475311 4.79246729 -7.24418308 3.87782099 -3.3125 1.75 C-2.219375 1.1725 -1.12625 0.595 0 0 Z " fill="#785D60" transform="translate(362,164)"/>
<path d="M0 0 C0.33 0 0.66 0 1 0 C2.54596467 12.85024003 3.25074238 25.10383197 2 38 C1.01 38.495 1.01 38.495 0 39 C0 26.13 0 13.26 0 0 Z " fill="#6C5555" transform="translate(412,82)"/>
<path d="M0 0 C4.14427102 -0.04976954 8.28837953 -0.08589288 12.43286133 -0.10986328 C13.84011876 -0.11986557 15.2473557 -0.13347178 16.65454102 -0.15087891 C18.68771448 -0.17538366 20.72061106 -0.18654083 22.75390625 -0.1953125 C23.97408447 -0.20578613 25.1942627 -0.21625977 26.45141602 -0.22705078 C30.30506028 0.01951882 33.34213 0.81421825 37 2 C37 2.33 37 2.66 37 3 C24.46 2.67 11.92 2.34 -1 2 C-0.67 1.34 -0.34 0.68 0 0 Z " fill="#76585E" transform="translate(590,62)"/>
<path d="M0 0 C13.69194136 2.01689675 25.68857296 5.48218569 38 12 C37.67 12.99 37.34 13.98 37 15 C36.00742188 14.46890625 35.01484375 13.9378125 33.9921875 13.390625 C23.61835019 7.9531616 13.01595758 2.56699252 1 3 C0.67 2.01 0.34 1.02 0 0 Z " fill="#765B5F" transform="translate(142,4)"/>
<path d="M0 0 C0 0.66 0 1.32 0 2 C-9.74577357 4.65793825 -18.91012735 5.15365288 -29 5 C-28.34 4.67 -27.68 4.34 -27 4 C-27 3.34 -27 2.68 -27 2 C-25.84242188 1.93941406 -24.68484375 1.87882813 -23.4921875 1.81640625 C-21.95311543 1.73194498 -20.41405345 1.64729982 -18.875 1.5625 C-18.11445312 1.52318359 -17.35390625 1.48386719 -16.5703125 1.44335938 C-11.00645026 1.13159123 -5.55631073 0 0 0 Z " fill="#786062" transform="translate(639,187)"/>
<path d="M0 0 C0.33 0 0.66 0 1 0 C1.185625 1.3921875 1.185625 1.3921875 1.375 2.8125 C1.81533082 6.13925235 1.81533082 6.13925235 4 9 C3.98282088 11.78015409 3.86602139 14.42780513 3.625 17.1875 C3.56828125 17.93708984 3.5115625 18.68667969 3.453125 19.45898438 C3.31189331 21.30676559 3.15723833 23.153512 3 25 C2.34 24.67 1.68 24.34 1 24 C0.34 25.32 -0.32 26.64 -1 28 C-0.67 18.76 -0.34 9.52 0 0 Z " fill="#644B4A" transform="translate(574,167)"/>
<path d="M0 0 C2.9375 1.1875 2.9375 1.1875 5 3 C5.8125 5.6875 5.8125 5.6875 6 8 C5.34 7.67 4.68 7.34 4 7 C4 6.01 4 5.02 4 4 C2.68 4 1.36 4 0 4 C0 3.34 0 2.68 0 2 C-1.32 2.33 -2.64 2.66 -4 3 C-4 3.66 -4 4.32 -4 5 C-4.66 5 -5.32 5 -6 5 C-6 5.66 -6 6.32 -6 7 C-7.65 6.67 -9.3 6.34 -11 6 C-11.33 5.01 -11.66 4.02 -12 3 C-8.46447202 -0.53552798 -4.74633596 -0.68746533 0 0 Z " fill="#6A554F" transform="translate(359,96)"/>
<path d="M0 0 C10.0111032 1.79868521 18.24508843 5.94988552 27 11 C27 11.66 27 12.32 27 13 C25.68 12.67 24.36 12.34 23 12 C23 11.34 23 10.68 23 10 C22.13375 9.88527344 21.2675 9.77054688 20.375 9.65234375 C16.96112191 8.99248537 14.17757486 7.95682647 11 6.5625 C7.04494077 4.8373114 3.11097659 3.31526781 -1 2 C-0.67 1.34 -0.34 0.68 0 0 Z " fill="#755D61" transform="translate(647,13)"/>
<path d="M0 0 C9.64211845 3.40813778 16.62191114 11.30353524 23 19 C22.67 19.66 22.34 20.32 22 21 C21.360625 20.34 20.72125 19.68 20.0625 19 C16.81481661 15.72415751 13.30031749 12.76193482 9.79296875 9.76953125 C9.20128906 9.18558594 8.60960937 8.60164063 8 8 C8 7.34 8 6.68 8 6 C7.236875 5.71125 6.47375 5.4225 5.6875 5.125 C3 4 3 4 0 2 C0 1.34 0 0.68 0 0 Z " fill="#73575A" transform="translate(181,18)"/>
<path d="M0 0 C3.20575987 0.34347427 3.97516759 0.9707854 6.125 3.5 C6.74375 4.325 7.3625 5.15 8 6 C8.66 6.33 9.32 6.66 10 7 C10.33 7.99 10.66 8.98 11 10 C11.66 10.33 12.32 10.66 13 11 C13.71706982 12.98248715 14.38290413 14.98415349 15 17 C15.33 17.66 15.66 18.32 16 19 C16.13415472 21.6723621 16.04318541 24.32250488 16 27 C14.50677555 24.16287354 13.41817482 21.33965684 12.375 18.3125 C10.05332137 12.3851841 5.85464621 5.9273231 0 3 C0 2.01 0 1.02 0 0 Z " fill="#715658" transform="translate(634,68)"/>
<path d="M0 0 C0.66 0.33 1.32 0.66 2 1 C-4.40630142 7.60649834 -11.00441741 13.38552814 -19 18 C-19.99 17.34 -20.98 16.68 -22 16 C-19.71180854 14.49445366 -17.41978831 12.99542957 -15.125 11.5 C-14.47402344 11.07074219 -13.82304688 10.64148438 -13.15234375 10.19921875 C-8.2265625 7 -8.2265625 7 -6 7 C-6 6.34 -6 5.68 -6 5 C-5.34 5 -4.68 5 -4 5 C-3.67 4.01 -3.34 3.02 -3 2 C-2.01 1.34 -1.02 0.68 0 0 Z " fill="#71555A" transform="translate(545,252)"/>
<path d="M0 0 C1.875 0.625 1.875 0.625 4 2 C5.25 5.125 5.25 5.125 6 8 C8.62187494 6.95125002 9.79371361 6.35068687 11.25 3.875 C11.4975 3.25625 11.745 2.6375 12 2 C12.66 2 13.32 2 14 2 C13.62403791 4.78211944 13.32681541 6.5879284 11.5625 8.8125 C10 10 10 10 8 10 C8 10.99 8 11.98 8 13 C5 12 5 12 3.3125 9.125 C2 6 2 6 2 3 C1.34 3 0.68 3 0 3 C0 2.01 0 1.02 0 0 Z " fill="#8D6C69" transform="translate(339,115)"/>
<path d="M0 0 C0.33 0 0.66 0 1 0 C1.04254356 1.99954746 1.04080783 4.00041636 1 6 C0.67 6.33 0.34 6.66 0 7 C-0.24273323 9.54869892 -0.38366867 12.09604532 -0.5234375 14.65234375 C-1 17 -1 17 -4 19 C-4.68884385 6.10331231 -4.68884385 6.10331231 -2.0625 2.1875 C-1.381875 1.465625 -0.70125 0.74375 0 0 Z " fill="#654B4B" transform="translate(313,108)"/>
<path d="M0 0 C0.99 0 1.98 0 3 0 C3 0.66 3 1.32 3 2 C3.99 1.67 4.98 1.34 6 1 C4.5682479 6.01113235 2.01554307 7.94469549 -2 11 C-3.25 8.875 -3.25 8.875 -4 6 C-2.3125 2.6875 -2.3125 2.6875 0 0 Z " fill="#674C49" transform="translate(650,267)"/>
<path d="M0 0 C0.66 0 1.32 0 2 0 C2.33 0.99 2.66 1.98 3 3 C3.66 3.33 4.32 3.66 5 4 C5 4.66 5 5.32 5 6 C5.66 6 6.32 6 7 6 C7 6.66 7 7.32 7 8 C7.66 8 8.32 8 9 8 C10.36639342 9.6396721 11.6949419 11.31110128 13 13 C14.31494512 14.35147138 15.64264858 15.69112542 17 17 C16.34 17.66 15.68 18.32 15 19 C13.243468 17.29798107 11.49492913 15.58884897 9.75 13.875 C9.25886719 13.400625 8.76773438 12.92625 8.26171875 12.4375 C4.98028951 9.19982315 2.36126553 5.96917492 0 2 C0 1.34 0 0.68 0 0 Z " fill="#73565A" transform="translate(162,247)"/>
<path d="M0 0 C0.99 0 1.98 0 3 0 C2.46029235 4.51088987 1.30899408 7.74926955 -0.9375 11.6875 C-1.46214844 12.61949219 -1.98679687 13.55148438 -2.52734375 14.51171875 C-3.62996529 16.37476894 -4.79913745 18.19870618 -6 20 C-6.99 19.67 -7.98 19.34 -9 19 C-8.566875 18.649375 -8.13375 18.29875 -7.6875 17.9375 C-5.31641544 15.21514365 -4.3283165 12.35241784 -3 9 C-2.34 9 -1.68 9 -1 9 C-0.67 6.03 -0.34 3.06 0 0 Z " fill="#70555A" transform="translate(707,130)"/>
<path d="M0 0 C0.33 0 0.66 0 1 0 C1 1.65 1 3.3 1 5 C1.66 5 2.32 5 3 5 C3.33 8.96 3.66 12.92 4 17 C4.66 17 5.32 17 6 17 C6.66 19.97 7.32 22.94 8 26 C7.34 26 6.68 26 6 26 C2.82820764 17.32731315 0.2136081 9.34049959 0 0 Z " fill="#77595E" transform="translate(341,194)"/>
<path d="M0 0 C0.66 0 1.32 0 2 0 C3.6875 2.4375 3.6875 2.4375 5 6 C4.38181503 9.16819799 3.28102828 12.04378089 2 15 C1.34 15 0.68 15 0 15 C0 15.66 0 16.32 0 17 C-0.66 17 -1.32 17 -2 17 C-1.49396008 14.83125748 -1.00016187 13.00032373 0 11 C0.07033769 9.12620395 0.0843022 7.24998898 0.0625 5.375 C0.04896484 3.87066406 0.04896484 3.87066406 0.03515625 2.3359375 C0.02355469 1.56507812 0.01195312 0.79421875 0 0 Z " fill="#654B44" transform="translate(361,100)"/>
<path d="M0 0 C1.98 0.99 1.98 0.99 4 2 C3.01 2.33 2.02 2.66 1 3 C1 14.55 1 26.1 1 38 C0.67 38 0.34 38 0 38 C0 25.46 0 12.92 0 0 Z " fill="#6B514F" transform="translate(259,10)"/>
<path d="M0 0 C0.66 0 1.32 0 2 0 C2.50471197 1.76949612 3.00360685 3.54065223 3.5 5.3125 C3.7784375 6.29863281 4.056875 7.28476563 4.34375 8.30078125 C5 11 5 11 5 14 C4.34 14 3.68 14 3 14 C2.67 14.66 2.34 15.32 2 16 C0.40837921 10.42932723 -0.20674944 5.78898419 0 0 Z " fill="#644D4E" transform="translate(583,244)"/>
<path d="M0 0 C0.33 0 0.66 0 1 0 C1.08076963 2.45898655 1.14037143 4.91533742 1.1875 7.375 C1.22520508 8.42300781 1.22520508 8.42300781 1.26367188 9.4921875 C1.29296875 11.5234375 1.29296875 11.5234375 1 15 C0.01 15.66 -0.98 16.32 -2 17 C-2 16.01 -2 15.02 -2 14 C-2.66 13.67 -3.32 13.34 -4 13 C-3.67 10.03 -3.34 7.06 -3 4 C-2.34 4 -1.68 4 -1 4 C-0.67 2.68 -0.34 1.36 0 0 Z " fill="#61473E" transform="translate(152,196)"/>
<path d="M0 0 C2 3 2 3 2 6 C2.66 6 3.32 6 4 6 C4 6.99 4 7.98 4 9 C4.99 9 5.98 9 7 9 C7.268125 9.969375 7.53625 10.93875 7.8125 11.9375 C8.204375 12.948125 8.59625 13.95875 9 15 C9.99 15.33 10.98 15.66 12 16 C11.34 16.66 10.68 17.32 10 18 C5.65484017 13.30088052 1.73916902 8.82073418 -1 3 C-0.67 2.01 -0.34 1.02 0 0 Z " fill="#6E5155" transform="translate(587,260)"/>
<path d="M0 0 C0.66 0 1.32 0 2 0 C2.66 1.65 3.32 3.3 4 5 C4.66 5 5.32 5 6 5 C6.721875 5.763125 7.44375 6.52625 8.1875 7.3125 C11.41396766 10.3955691 13.86796474 11.46061431 18 13 C17.01 13.66 16.02 14.32 15 15 C8.42508379 11.16599179 2.40258427 7.64458631 0 0 Z " fill="#705456" transform="translate(313,134)"/>
<path d="M0 0 C3 2 3 2 4 5 C4.03954234 7.33299825 4.04401732 9.66708189 4 12 C3.34 11.67 2.68 11.34 2 11 C1.67 11.99 1.34 12.98 1 14 C-0.32 13.67 -1.64 13.34 -3 13 C-2.01 13 -1.02 13 0 13 C0 8.71 0 4.42 0 0 Z " fill="#705249" transform="translate(336,132)"/>
<path d="M0 0 C-1.50908449 3.84130598 -3.8029487 5.48803112 -7 8 C-7.721875 8.9075 -8.44375 9.815 -9.1875 10.75 C-10.0846875 11.86375 -10.0846875 11.86375 -11 13 C-11.66 13 -12.32 13 -13 13 C-11.02974676 8.91876114 -8.95066045 5.77334212 -5.5 2.8125 C-4.8915625 2.28269531 -4.283125 1.75289063 -3.65625 1.20703125 C-2 0 -2 0 0 0 Z " fill="#705758" transform="translate(309,81)"/>
<path d="M0 0 C5.28 0.99 10.56 1.98 16 3 C16 3.33 16 3.66 16 4 C14.35 4 12.7 4 11 4 C11 4.66 11 5.32 11 6 C3.375 4.125 3.375 4.125 0 3 C0 2.01 0 1.02 0 0 Z " fill="#6C5654" transform="translate(606,281)"/>
<path d="M0 0 C1.1484375 1.671875 1.1484375 1.671875 2 4 C1.1015625 6.578125 1.1015625 6.578125 -0.375 9.25 C-0.85710937 10.14203125 -1.33921875 11.0340625 -1.8359375 11.953125 C-2.22007812 12.62859375 -2.60421875 13.3040625 -3 14 C-3.33 14 -3.66 14 -4 14 C-3.91621094 13.37351563 -3.83242188 12.74703125 -3.74609375 12.1015625 C-3.64425781 11.28429687 -3.54242188 10.46703125 -3.4375 9.625 C-3.33308594 8.81289062 -3.22867187 8.00078125 -3.12109375 7.1640625 C-2.81762672 4.95100814 -2.81762672 4.95100814 -4 3 C-3.01 2.67 -2.02 2.34 -1 2 C-0.67 1.34 -0.34 0.68 0 0 Z " fill="#6E5253" transform="translate(325,228)"/>
<path d="M0 0 C-0.33 0.99 -0.66 1.98 -1 3 C-6.88414233 5.57431227 -12.8322532 4.97900743 -19 4 C-19 3.67 -19 3.34 -19 3 C-17.53626953 2.80083984 -17.53626953 2.80083984 -16.04296875 2.59765625 C-14.13451172 2.33275391 -14.13451172 2.33275391 -12.1875 2.0625 C-10.29064453 1.80146484 -10.29064453 1.80146484 -8.35546875 1.53515625 C-5.4915449 1.0783954 -2.87453224 0 0 0 Z " fill="#785D62" transform="translate(268,281)"/>
<path d="M0 0 C0.66 0 1.32 0 2 0 C2.69640673 2.12209776 3.38188357 4.24778527 4.0625 6.375 C4.44535156 7.55835938 4.82820313 8.74171875 5.22265625 9.9609375 C6 13 6 13 5 15 C4.01 13.68 3.02 12.36 2 11 C1.34 11.66 0.68 12.32 0 13 C0 8.71 0 4.42 0 0 Z " fill="#74565C" transform="translate(414,186)"/>
<path d="M0 0 C0.33 0 0.66 0 1 0 C1 3.3 1 6.6 1 10 C1.99 9.67 2.98 9.34 4 9 C4.33 10.98 4.66 12.96 5 15 C3.35 15.33 1.7 15.66 0 16 C-1.52634923 12.94730154 -0.83794444 10.24154311 -0.5625 6.875 C-0.46066406 5.59367187 -0.35882812 4.31234375 -0.25390625 2.9921875 C-0.12822266 1.51105469 -0.12822266 1.51105469 0 0 Z " fill="#695051" transform="translate(588,47)"/>
<path d="M0 0 C2.36319349 0.9452774 3.73002108 1.58003278 5.125 3.75 C6.15657407 6.40261904 6.19964343 8.41354949 6.125 11.25 C6.10695313 12.14203125 6.08890625 13.0340625 6.0703125 13.953125 C6.03550781 14.96632812 6.03550781 14.96632812 6 16 C5.34 15.67 4.68 15.34 4 15 C3.4375 12.63671875 3.4375 12.63671875 3 9.6875 C2.45781645 6.06164749 1.82265304 3.19723721 0 0 Z " fill="#B3958D" transform="translate(336,130)"/>
<path d="M0 0 C0.66 0.66 1.32 1.32 2 2 C0.88037801 3.64949657 -0.24586845 5.29449838 -1.375 6.9375 C-2.00148438 7.85402344 -2.62796875 8.77054688 -3.2734375 9.71484375 C-5 12 -5 12 -7 13 C-6.54121204 8.87090834 -6.18992927 6.69917092 -3 4 C-1.98199424 2.68036291 -0.97751635 1.34990354 0 0 Z " fill="#6D5056" transform="translate(561,231)"/>
<path d="M0 0 C0.33 0 0.66 0 1 0 C1 3.63 1 7.26 1 11 C0.34 11 -0.32 11 -1 11 C-1 11.99 -1 12.98 -1 14 C-2.32 13.67 -3.64 13.34 -5 13 C-4.54625 12.34 -4.0925 11.68 -3.625 11 C-1.64679567 7.34793046 -0.89225708 4.04947443 0 0 Z " fill="#6F5758" transform="translate(258,201)"/>
<path d="M0 0 C0.33 0 0.66 0 1 0 C1.5831169 5.59792221 0.49020838 8.57865413 -2.515625 13.30078125 C-4.17778775 15.20352019 -5.68851489 16.02700306 -8 17 C-7.34 15.35 -6.68 13.7 -6 12 C-5.01 12 -4.02 12 -3 12 C-3 10.68 -3 9.36 -3 8 C-2.34 8 -1.68 8 -1 8 C-0.67 5.36 -0.34 2.72 0 0 Z " fill="#71575C" transform="translate(364,107)"/>
<path d="M0 0 C0.78375 0.61875 1.5675 1.2375 2.375 1.875 C2.045 2.535 1.715 3.195 1.375 3.875 C0.85292969 3.52566406 0.33085937 3.17632812 -0.20703125 2.81640625 C-6.32291089 -0.96451409 -11.47886023 -1.97807002 -18.625 -2.125 C-18.625 -2.455 -18.625 -2.785 -18.625 -3.125 C-12.15454543 -4.72819641 -5.59741684 -3.73604307 0 0 Z " fill="#6F5659" transform="translate(334.625,109.125)"/>
<path d="M0 0 C1.60031344 3.20062687 0.03173691 5.72271806 -1 9 C-0.34 9.66 0.32 10.32 1 11 C-0.32 11.99 -1.64 12.98 -3 14 C-3.66 13.34 -4.32 12.68 -5 12 C-4.73314868 7.33010192 -2.37159913 3.90166308 0 0 Z " fill="#6F5553" transform="translate(49,47)"/>
<path d="M0 0 C2.64 0 5.28 0 8 0 C7.67 0.66 7.34 1.32 7 2 C5.68 2 4.36 2 3 2 C3 3.32 3 4.64 3 6 C2.34 6 1.68 6 1 6 C0.67 6.66 0.34 7.32 0 8 C0 5.36 0 2.72 0 0 Z " fill="#664F4A" transform="translate(340,173)"/>
<path d="M0 0 C-0.33 0.99 -0.66 1.98 -1 3 C-1.66 3 -2.32 3 -3 3 C-3 3.66 -3 4.32 -3 5 C-3.66 5 -4.32 5 -5 5 C-5.99 8.465 -5.99 8.465 -7 12 C-7.33 12 -7.66 12 -8 12 C-8 9.69 -8 7.38 -8 5 C-7.34 5 -6.68 5 -6 5 C-6 4.34 -6 3.68 -6 3 C-5.34 3 -4.68 3 -4 3 C-4 2.34 -4 1.68 -4 1 C-2 0 -2 0 0 0 Z " fill="#A4877F" transform="translate(359,98)"/>
<path d="M0 0 C0.33 0.66 0.66 1.32 1 2 C1.66 2 2.32 2 3 2 C3.28875 2.639375 3.5775 3.27875 3.875 3.9375 C4.82823451 6.15206079 4.82823451 6.15206079 7 7 C7 7.66 7 8.32 7 9 C6.01 9.33 5.02 9.66 4 10 C3.13342884 8.90554162 2.28207276 7.79902219 1.4375 6.6875 C0.96183594 6.07261719 0.48617188 5.45773438 -0.00390625 4.82421875 C-0.33261719 4.22222656 -0.66132813 3.62023437 -1 3 C-0.67 2.01 -0.34 1.02 0 0 Z " fill="#6D5251" transform="translate(360,238)"/>
<path d="M0 0 C9.06187845 -0.46077348 9.06187845 -0.46077348 13 3 C13.8125 5.6875 13.8125 5.6875 14 8 C13.34 7.67 12.68 7.34 12 7 C12 6.01 12 5.02 12 4 C10.68 4 9.36 4 8 4 C8 3.34 8 2.68 8 2 C5.36 1.67 2.72 1.34 0 1 C0 0.67 0 0.34 0 0 Z " fill="#735B62" transform="translate(351,96)"/>
<path d="M0 0 C1.4391134 0.28359887 2.87625518 0.57721399 4.3125 0.875 C5.11300781 1.03742187 5.91351562 1.19984375 6.73828125 1.3671875 C9 2 9 2 12 4 C8.57056481 5.18771723 6.62215325 4.80226223 3.25 3.5625 C2.45078125 3.27503906 1.6515625 2.98757812 0.828125 2.69140625 C0.22484375 2.46324219 -0.3784375 2.23507812 -1 2 C-0.67 1.34 -0.34 0.68 0 0 Z " fill="#6F5859" transform="translate(647,13)"/>
<path d="M0 0 C0.66 0 1.32 0 2 0 C1.71812064 1.79323253 1.4241719 3.58457126 1.125 5.375 C0.96257812 6.37273437 0.80015625 7.37046875 0.6328125 8.3984375 C0 11 0 11 -2 13 C-2.19294408 8.17639811 -1.75747614 4.50353262 0 0 Z " fill="#755D61" transform="translate(329,215)"/>
<path d="M0 0 C0.33 0.99 0.66 1.98 1 3 C-1.80804268 5.96404505 -4.18315774 8.44499019 -8 10 C-6.34908222 5.70761377 -3.26245434 3.1206085 0 0 Z " fill="#7A5D61" transform="translate(375,153)"/>
<path d="M0 0 C0.99 0.33 1.98 0.66 3 1 C3 1.66 3 2.32 3 3 C3.66 3 4.32 3 5 3 C5.33 5.31 5.66 7.62 6 10 C5.67 9.34 5.34 8.68 5 8 C4.34 8 3.68 8 3 8 C2.71125 7.195625 2.4225 6.39125 2.125 5.5625 C1.26737432 2.8673532 1.26737432 2.8673532 -1 2 C-0.67 1.34 -0.34 0.68 0 0 Z " fill="#604742" transform="translate(586,258)"/>
<path d="M0 0 C0.66 0 1.32 0 2 0 C0.6062718 4.43458973 -1.60582235 6.87378374 -5 10 C-4.38479725 6.00118212 -2.39731331 3.19641774 0 0 Z " fill="#73575B" transform="translate(319,242)"/>
<path d="M0 0 C2.76223278 2.76223278 2.57856291 5.20706617 3 9 C2.01 9 1.02 9 0 9 C-0.87890625 2.84765625 -0.87890625 2.84765625 -1 1 C-0.67 0.67 -0.34 0.34 0 0 Z " fill="#664E4B" transform="translate(345,202)"/>
<path d="M0 0 C2.625 -0.1875 2.625 -0.1875 5 0 C5 0.66 5 1.32 5 2 C5.66 2 6.32 2 7 2 C7 2.99 7 3.98 7 5 C2.545 4.01 2.545 4.01 -2 3 C-1.34 2.01 -0.68 1.02 0 0 Z " fill="#684F50" transform="translate(624,63)"/>
<path d="M0 0 C2.475 0.495 2.475 0.495 5 1 C5.33 2.32 5.66 3.64 6 5 C4.35 4.67 2.7 4.34 1 4 C0.67 2.68 0.34 1.36 0 0 Z " fill="#6E4F4F" transform="translate(379,259)"/>
<path d="M0 0 C0.33 0 0.66 0 1 0 C1 3.3 1 6.6 1 10 C1.66 10 2.32 10 3 10 C2.67 10.99 2.34 11.98 2 13 C1.67 12.67 1.34 12.34 1 12 C0.34 13.32 -0.32 14.64 -1 16 C-0.67 10.72 -0.34 5.44 0 0 Z " fill="#5C443E" transform="translate(574,179)"/>
<path d="M0 0 C0.66 0 1.32 0 2 0 C1.63692621 2.68674602 1.33095772 4.55872304 -0.3125 6.75 C-2.19904732 8.14744246 -3.70199304 8.6037919 -6 9 C-6 7 -6 7 -3.5625 4.5 C-2.716875 3.675 -1.87125 2.85 -1 2 C-0.67 1.34 -0.34 0.68 0 0 Z " fill="#A68780" transform="translate(351,117)"/>
<path d="M0 0 C0.99 1.485 0.99 1.485 2 3 C2.66 2.67 3.32 2.34 4 2 C4 3.65 4 5.3 4 7 C2.02 7.99 2.02 7.99 0 9 C0 6.03 0 3.06 0 0 Z " fill="#66493F" transform="translate(354,111)"/>
<path d="M0 0 C0.66 0 1.32 0 2 0 C0.34832443 3.5786304 -1.78286492 6.74820188 -4 10 C-4.6875 8.25 -4.6875 8.25 -5 6 C-3.6875 3.75 -3.6875 3.75 -2 2 C-1.34 2 -0.68 2 0 2 C0 1.34 0 0.68 0 0 Z " fill="#775F60" transform="translate(117,72)"/>
<path d="M0 0 C1.0494188 3.14825641 0.98655124 3.98701503 0.1875 7.0625 C0.01605469 7.75472656 -0.15539063 8.44695312 -0.33203125 9.16015625 C-1 11 -1 11 -3 13 C-2.88490339 11.58249437 -2.75746342 10.16598831 -2.625 8.75 C-2.55539063 7.96109375 -2.48578125 7.1721875 -2.4140625 6.359375 C-1.98492887 3.914123 -1.21399362 2.15163097 0 0 Z " fill="#705758" transform="translate(43,60)"/>
<path d="M0 0 C0.66 0 1.32 0 2 0 C2.33 0.99 2.66 1.98 3 3 C3.66 3.33 4.32 3.66 5 4 C5 4.66 5 5.32 5 6 C5.66 6 6.32 6 7 6 C7 6.66 7 7.32 7 8 C7.66 8.33 8.32 8.66 9 9 C6.75 8.875 6.75 8.875 4 8 C0 2.91891892 0 2.91891892 0 0 Z " fill="#6C5254" transform="translate(162,247)"/>
<path d="M0 0 C0.33 0 0.66 0 1 0 C1.33 3.63 1.66 7.26 2 11 C1.67 10.34 1.34 9.68 1 9 C0.34 9 -0.32 9 -1 9 C-1.125 2.25 -1.125 2.25 0 0 Z " fill="#886562" transform="translate(352,108)"/>
<path d="M0 0 C0.66 0 1.32 0 2 0 C2.33 0.66 2.66 1.32 3 2 C3.66 2 4.32 2 5 2 C4.42655063 4.86724686 4.1385485 5.8614515 2 8 C0.4375 6.25 0.4375 6.25 -1 4 C-0.6875 1.75 -0.6875 1.75 0 0 Z " fill="#68483C" transform="translate(356,102)"/>
<path d="M0 0 C-2.5652659 1.71017726 -4.87960965 2.90417811 -7.6875 4.125 C-8.49574219 4.47820312 -9.30398438 4.83140625 -10.13671875 5.1953125 C-10.75160156 5.46085937 -11.36648438 5.72640625 -12 6 C-11.67 5.01 -11.34 4.02 -11 3 C-10.01 3 -9.02 3 -8 3 C-8 2.34 -8 1.68 -8 1 C-5.29120665 -0.35439668 -2.99066732 -0.06501451 0 0 Z " fill="#745A62" transform="translate(324,75)"/>
<path d="M0 0 C0.66 1.32 1.32 2.64 2 4 C0.33333333 5.66666667 -1.33333333 7.33333333 -3 9 C-3 8.34 -3 7.68 -3 7 C-3.66 6.67 -4.32 6.34 -5 6 C-3.35 4.02 -1.7 2.04 0 0 Z " fill="#654E4A" transform="translate(525,263)"/>
<path d="M0 0 C0.66 0 1.32 0 2 0 C1.67 3.96 1.34 7.92 1 12 C0.67 12 0.34 12 0 12 C0 10.35 0 8.7 0 7 C-0.66 7 -1.32 7 -2 7 C-1.34 4.69 -0.68 2.38 0 0 Z " fill="#5D4342" transform="translate(585,237)"/>
<path d="M0 0 C3.07563891 1.53781946 3.70322574 3.91244223 5 7 C4.67 7.99 4.34 8.98 4 10 C1.41050731 8.70525365 1.03964236 7.67336607 0 5 C-0.125 2.25 -0.125 2.25 0 0 Z " fill="#6F585C" transform="translate(290,139)"/>
<path d="M0 0 C6.875 3.625 6.875 3.625 8 7 C5.0280615 5.87548273 2.66559313 4.77706209 0 3 C0 2.01 0 1.02 0 0 Z " fill="#755756" transform="translate(675,25)"/>
<path d="M0 0 C0.33 0 0.66 0 1 0 C1 3.3 1 6.6 1 10 C0.01 10.33 -0.98 10.66 -2 11 C-1.34 7.37 -0.68 3.74 0 0 Z " fill="#735B5C" transform="translate(111,271)"/>
<path d="M0 0 C-1.49097658 3.7952131 -3.75700849 5.61042731 -7 8 C-6.44414399 4.1090079 -4.34122117 0 0 0 Z " fill="#6D4F53" transform="translate(554,244)"/>
<path d="M0 0 C1.65 0.33 3.3 0.66 5 1 C4.34 2.32 3.68 3.64 3 5 C2.01 4.67 1.02 4.34 0 4 C0 5.65 0 7.3 0 9 C-0.33 9 -0.66 9 -1 9 C-0.67 6.03 -0.34 3.06 0 0 Z " fill="#5C4442" transform="translate(707,126)"/>
<path d="M0 0 C1.32 0.33 2.64 0.66 4 1 C4.66 3.64 5.32 6.28 6 9 C2.91910327 6.22719294 1.31224548 3.93673644 0 0 Z " fill="#6F5556" transform="translate(376,92)"/>
<path d="M0 0 C2.64752004 2.57784846 4.94432065 4.91648098 7 8 C7 8.99 7 9.98 7 11 C6.34 11 5.68 11 5 11 C4.35165346 9.730447 3.70642185 8.45930294 3.0625 7.1875 C2.70285156 6.47980469 2.34320313 5.77210937 1.97265625 5.04296875 C1 3 1 3 0 0 Z " fill="#705659" transform="translate(205,40)"/>
<path d="M0 0 C0.66 0 1.32 0 2 0 C3.06775224 1.96466413 4.06553465 3.96855359 5 6 C4 8 4 8 2 9 C1.34 6.03 0.68 3.06 0 0 Z " fill="#523E3B" transform="translate(361,100)"/>
<path d="M0 0 C3 2 3 2 3.6875 4.625 C3.790625 5.40875 3.89375 6.1925 4 7 C3.01 6.67 2.02 6.34 1 6 C-0.1875 3.4375 -0.1875 3.4375 -1 1 C-0.67 0.67 -0.34 0.34 0 0 Z " fill="#745D5C" transform="translate(356,233)"/>
<path d="M0 0 C0.33 0 0.66 0 1 0 C1.33 2.31 1.66 4.62 2 7 C1.01 7.495 1.01 7.495 0 8 C0 7.34 0 6.68 0 6 C-0.99 5.67 -1.98 5.34 -3 5 C-2.03114628 3.31503702 -1.03013277 1.64821244 0 0 Z " fill="#624B47" transform="translate(326,222)"/>
<path d="M0 0 C-1.39332574 3.36720387 -2.9789286 4.9859524 -6 7 C-5.37162381 3.35541809 -4.14650034 0 0 0 Z " fill="#714E5E" transform="translate(654,271)"/>
<path d="M0 0 C-1 3 -1 3 -2.8125 4.25 C-5.33943414 5.11637742 -6.52221994 4.88492145 -9 4 C-2.25 0 -2.25 0 0 0 Z " fill="#796163" transform="translate(253,216)"/>
<path d="M0 0 C0 0.66 0 1.32 0 2 C-3.69541586 2.95024979 -6.30458414 2.95024979 -10 2 C-10 1.67 -10 1.34 -10 1 C-6.56484998 0.37542727 -3.50935186 0 0 0 Z " fill="#795D5E" transform="translate(639,187)"/>
</svg>
