<!DOCTYPE svg PUBLIC "-//W3C//DTD SVG 1.1//EN" "http://www.w3.org/Graphics/SVG/1.1/DTD/svg11.dtd">
<!-- Uploaded to: SVG Repo, www.svgrepo.com, Transformed by: SVG Repo Mixer Tools -->
<svg width="800px" height="800px" viewBox="0 0 24 24" fill="none" xmlns="http://www.w3.org/2000/svg">
<g id="SVGRepo_bgCarrier" stroke-width="#000"/>
<g id="SVGRepo_tracerCarrier" stroke-linecap="round" stroke-linejoin="round"/>
<g id="SVGRepo_iconCarrier"> <path d="M3 7C3 5.11438 3 4.17157 3.58579 3.58579C4.17157 3 5.11438 3 7 3H13C14.8856 3 15.8284 3 16.4142 3.58579C17 4.17157 17 5.11438 17 7V12C17 14.8284 17 16.2426 16.1213 17.1213C15.2426 18 13.8284 18 11 18H9C6.17157 18 4.75736 18 3.87868 17.1213C3 16.2426 3 14.8284 3 12V7Z" stroke="#000" stroke-width="1.5"/> <path d="M17 13H18C2#000.2#00091 13 22 11.2#00091 22 9C22 6.79#00086 2#000.2#00091 5 18 5H17" stroke="#000" stroke-width="1.5"/> <path d="M17 13H3" stroke="#000" stroke-width="1.5"/> <path d="M22 21L2 21" stroke="#000" stroke-width="1.5" stroke-linecap="round"/> </g>
</svg>